<svg width="215" height="82" viewBox="0 0 215 82" fill="none" xmlns="http://www.w3.org/2000/svg">
<path d="M85.4539 8.31783H89.281V8.87043C89.2399 8.88088 89.1914 8.89374 89.1349 8.90908C89.0784 8.92434 89.0252 8.94697 88.9736 8.97757C88.8614 9.02908 88.759 9.11368 88.6661 9.23128C88.5742 9.34888 88.5282 9.52048 88.5282 9.74522V18.2469H92.9241V9.74522C92.9241 9.54063 92.8676 9.35377 92.7555 9.18534C92.6425 9.01623 92.4425 8.91148 92.156 8.87043V8.31783H92.3093H96.1372V8.87043C95.871 8.91148 95.6861 8.99608 95.5837 9.12337C95.4812 9.25143 95.4199 9.39243 95.3997 9.54543C95.3892 9.57603 95.3836 9.60988 95.3836 9.64537C95.3836 9.68163 95.3836 9.71462 95.3836 9.74522V17.4953C95.3836 17.6999 95.4045 17.8554 95.4457 17.9633C95.4868 18.0705 95.553 18.1703 95.645 18.2622C95.6659 18.2928 95.6918 18.321 95.7224 18.3468C95.7531 18.3725 95.7886 18.4007 95.8298 18.4313C95.8806 18.4725 95.9347 18.5183 95.9912 18.5691C96.0477 18.6207 96.1017 18.6771 96.1525 18.7383C96.2857 18.8817 96.4091 19.05 96.5213 19.2449C96.6342 19.4391 96.6907 19.6743 96.6907 19.9506C96.6907 19.9812 96.6907 20.0142 96.6907 20.0505C96.6907 20.086 96.6851 20.1198 96.6754 20.1504C96.6141 20.6716 96.3341 21.1501 95.8378 21.585C95.3408 22.02 94.6872 22.2376 93.8771 22.2376L93.7238 22.2528C93.5294 22.2424 93.3187 22.2222 93.0936 22.1909C92.8676 22.1603 92.6425 22.1191 92.4174 22.0684C92.1609 22.0072 91.9099 21.9403 91.6637 21.8687C91.4177 21.7969 91.1925 21.7204 90.9876 21.639C90.1783 21.3216 89.5965 21.1114 89.2431 21.0091C88.8889 20.9068 88.6355 20.8456 88.4822 20.8254C88.3797 20.8359 88.2974 20.8609 88.2361 20.902C88.1748 20.943 88.1336 20.9842 88.1126 21.0252C88.1126 21.0349 88.1102 21.0478 88.1053 21.0631C88.0997 21.0784 88.0973 21.0913 88.0973 21.1018C88.0973 21.163 88.1102 21.2064 88.1361 21.2322C88.1618 21.2572 88.1901 21.2701 88.2207 21.2701C88.2304 21.2701 88.2409 21.2701 88.2514 21.2701C88.2619 21.2701 88.2715 21.2701 88.2821 21.2701L88.3587 21.2854C88.3893 21.2758 88.4281 21.2733 88.4741 21.2782C88.5201 21.283 88.5693 21.291 88.6201 21.3007C88.692 21.3216 88.759 21.3628 88.8203 21.424C88.8816 21.4852 88.9122 21.5826 88.9122 21.7156C88.9122 21.726 88.9122 21.7333 88.9122 21.7381C88.9122 21.7438 88.9122 21.751 88.9122 21.7615C88.9017 21.8839 88.8428 21.9967 88.7355 22.099C88.6282 22.2013 88.4669 22.2528 88.2514 22.2528L88.0973 22.2682C87.8721 22.2577 87.6874 22.1731 87.5437 22.0145C87.4009 21.8557 87.3292 21.6487 87.3292 21.3934C87.3292 20.9535 87.5672 20.5878 88.044 20.2962C88.5201 20.0046 89.1584 19.8588 89.9572 19.8588L90.1113 19.8741C90.501 19.8636 90.8674 19.8966 91.2103 19.974C91.554 20.0505 91.8639 20.1351 92.1407 20.2269C92.2633 20.268 92.3787 20.3083 92.486 20.3494C92.5941 20.3904 92.6942 20.4267 92.7862 20.4573C93.2784 20.6313 93.6697 20.7642 93.9618 20.856C94.2539 20.9479 94.5129 20.9994 94.7381 21.0091C94.9841 20.9994 95.2101 20.9124 95.4151 20.7489C95.62 20.5846 95.7224 20.355 95.7224 20.0578C95.7224 19.7814 95.6143 19.5462 95.3997 19.3521C95.1843 19.1579 94.897 19.0605 94.5387 19.0605H85.2998V18.5079C85.3409 18.5079 85.3894 18.5007 85.4458 18.4853C85.5023 18.47 85.5563 18.4467 85.6072 18.4161C85.7202 18.3645 85.8251 18.2775 85.9227 18.1551C86.0196 18.0326 86.0688 17.8586 86.0688 17.6331V9.74522C86.0688 9.44882 85.9889 9.23128 85.8299 9.09277C85.671 8.95503 85.4943 8.88088 85.2998 8.87043V8.31783H85.4539ZM97.3669 8.31783H104.976C105.181 8.31783 105.335 8.30488 105.438 8.27994C105.54 8.25414 105.622 8.17443 105.684 8.04148H105.837H106.221V10.7892H106.068H105.514C105.32 10.0723 105.022 9.61717 104.623 9.42303C104.223 9.22888 103.695 9.13143 103.039 9.13143H100.626V13.0141H102.178C102.588 13.0141 102.911 12.9449 103.147 12.8071C103.382 12.6685 103.5 12.4205 103.5 12.0628V12.0322H103.654H104.208V14.7944H104.054H103.5C103.48 14.5382 103.416 14.3441 103.308 14.2111C103.201 14.0783 103.09 13.9808 102.978 13.9195C102.876 13.8785 102.778 13.8527 102.686 13.8431C102.593 13.8325 102.527 13.8277 102.486 13.8277H100.626V18.2469H104.162C104.786 18.2469 105.307 18.0552 105.722 17.6717C106.137 17.2883 106.386 16.8453 106.467 16.3442H106.621H107.175V19.0605H107.021H97.3669V18.5079C97.6332 18.4773 97.8204 18.3983 97.9277 18.2703C98.0358 18.1422 98.1044 18.0012 98.1359 17.8481C98.1455 17.7869 98.1536 17.7257 98.1585 17.6637C98.1642 17.6025 98.1666 17.5461 98.1666 17.4953V9.88374C98.1666 9.84268 98.1666 9.79923 98.1666 9.75328C98.1666 9.70657 98.1609 9.66303 98.1512 9.62283C98.1303 9.45843 98.0689 9.30303 97.9664 9.15474C97.864 9.00577 97.6639 8.91148 97.3669 8.87043V8.31783ZM112.386 8.31783V8.87043C112.345 8.87043 112.296 8.87848 112.24 8.89374C112.183 8.90908 112.13 8.93163 112.078 8.96223C111.966 9.01383 111.86 9.10083 111.764 9.22323C111.666 9.34648 111.618 9.52048 111.618 9.74522V13.1213H116.813V9.74522C116.813 9.71462 116.813 9.68163 116.813 9.64537C116.813 9.60988 116.808 9.57603 116.798 9.54543C116.777 9.39243 116.715 9.25143 116.613 9.12337C116.511 8.99608 116.327 8.91148 116.06 8.87043V8.31783H116.214H120.042V8.87043C119.785 8.91148 119.593 9.00088 119.465 9.13948C119.336 9.27723 119.273 9.47942 119.273 9.74522L119.288 17.6331C119.288 17.8787 119.331 18.0576 119.419 18.1703C119.506 18.2831 119.662 18.375 119.887 18.4467C119.908 18.4571 119.931 18.4668 119.957 18.4773C119.983 18.4877 120.011 18.4974 120.042 18.5079V19.0605H119.887H116.06V18.5079C116.091 18.4974 116.118 18.4877 116.144 18.4773C116.17 18.4668 116.193 18.4571 116.214 18.4467C116.439 18.375 116.595 18.2831 116.682 18.1703C116.77 18.0576 116.813 17.8787 116.813 17.6331V13.9349H111.618V17.6331C111.618 17.8586 111.666 18.0399 111.764 18.1784C111.86 18.3161 112.069 18.4265 112.386 18.5079V19.0605H112.232H108.404V18.5079C108.701 18.4056 108.901 18.2928 109.004 18.1703C109.106 18.0479 109.158 17.8683 109.158 17.6331V9.74522C109.158 9.52048 109.111 9.34888 109.019 9.23128C108.927 9.11368 108.825 9.02908 108.712 8.97757C108.661 8.94697 108.607 8.92434 108.55 8.90908C108.494 8.89374 108.446 8.88088 108.404 8.87043V8.31783H108.559H112.386ZM120.964 8.04148H121.579C121.722 8.11323 121.873 8.16714 122.032 8.20263C122.191 8.23888 122.368 8.25663 122.562 8.25663H129.418C129.521 8.25663 129.616 8.25174 129.703 8.24128C129.79 8.23083 129.88 8.22114 129.972 8.21068C130.044 8.19054 130.116 8.16714 130.187 8.14143C130.259 8.11563 130.336 8.08263 130.417 8.04148H130.571H131.171V10.8045H131.017H130.464C130.321 10.4662 130.157 10.1907 129.972 9.97563C129.787 9.76057 129.598 9.59214 129.403 9.46897C129.147 9.29497 128.901 9.18783 128.666 9.14668C128.429 9.10563 128.235 9.08548 128.081 9.08548L127.221 9.07022V17.6331C127.221 17.8586 127.269 18.0399 127.367 18.1784C127.463 18.3161 127.672 18.4265 127.989 18.5079V19.0605H127.835H124.007V18.5079C124.038 18.4974 124.066 18.4877 124.092 18.4773C124.118 18.4668 124.141 18.4571 124.162 18.4467C124.387 18.375 124.543 18.2831 124.63 18.1703C124.717 18.0576 124.761 17.8787 124.761 17.6331V9.07022L124.053 9.08548C123.9 9.08548 123.733 9.09594 123.554 9.11608C123.375 9.13623 123.192 9.17728 123.008 9.23857C122.721 9.33114 122.442 9.49468 122.171 9.72988C121.899 9.96517 121.681 10.3236 121.517 10.8045H121.363H120.81V8.04148H120.964ZM131.939 19.0605V18.5079C131.97 18.5079 132.018 18.5007 132.085 18.4853C132.152 18.47 132.226 18.4362 132.308 18.3855C132.401 18.3339 132.488 18.2469 132.569 18.1245C132.652 18.0012 132.693 17.8329 132.693 17.6177V11.6173C132.693 10.4203 133.059 9.55588 133.792 9.02428C134.525 8.49183 135.327 8.2058 136.197 8.16474C136.249 8.15428 136.297 8.14948 136.343 8.14948C136.389 8.14948 136.438 8.14948 136.489 8.14948H136.643C138.026 8.14948 139.07 8.51514 139.772 9.24663C140.474 9.97803 140.825 10.8045 140.825 11.7252C140.825 11.9298 140.809 12.1474 140.778 12.3769C140.747 12.6073 140.696 12.8401 140.625 13.0753C140.45 13.6691 140.123 14.2136 139.641 14.7098C139.159 15.206 138.442 15.4541 137.488 15.4541H137.335C137.078 15.4541 136.756 15.4211 136.367 15.3542C135.977 15.2881 135.572 15.1271 135.152 14.8709V17.6177C135.152 17.8329 135.226 18.027 135.375 18.201C135.523 18.375 135.721 18.4773 135.966 18.5079V19.0605H135.813H131.939ZM135.152 10.5282V13.1365C135.152 13.4845 135.303 13.7842 135.606 14.0347C135.908 14.2853 136.269 14.4206 136.689 14.4415C137.315 14.4206 137.709 14.1548 137.873 13.6433C138.037 13.1317 138.119 12.4873 138.119 11.71C138.119 10.9318 138.05 10.285 137.911 9.76863C137.773 9.25143 137.37 8.98323 136.705 8.96223C136.674 8.96223 136.643 8.96548 136.613 8.97028C136.581 8.97517 136.551 8.97757 136.52 8.97757C136.171 9.02908 135.857 9.17728 135.575 9.42303C135.293 9.66868 135.152 10.0368 135.152 10.5282ZM141.516 18.5079C141.588 18.4877 141.703 18.4313 141.862 18.3395C142.021 18.2469 142.188 18.0729 142.362 17.8175C142.413 17.7459 142.462 17.6693 142.508 17.5871C142.554 17.505 142.598 17.4188 142.639 17.3261L145.744 10.7731C145.774 10.7022 145.803 10.6249 145.828 10.5435C145.854 10.4614 145.872 10.3792 145.882 10.2978C145.903 10.2262 145.915 10.1496 145.92 10.0674C145.925 9.98608 145.928 9.90877 145.928 9.83703C145.928 9.75568 145.874 9.68163 145.767 9.61477C145.659 9.54868 145.519 9.52048 145.344 9.53017C145.323 9.53017 145.301 9.53017 145.275 9.53017C145.249 9.53017 145.226 9.53017 145.205 9.53017V8.97757C145.626 8.94697 145.972 8.87283 146.243 8.75523C146.515 8.63762 146.733 8.51274 146.897 8.3798C146.947 8.34843 146.994 8.31294 147.035 8.27188C147.076 8.23083 147.112 8.19054 147.143 8.14948H147.296H147.85L151.877 16.5593C152.195 17.2142 152.456 17.6717 152.661 17.9327C152.866 18.1937 153.066 18.375 153.261 18.4773C153.271 18.4773 153.281 18.4797 153.291 18.4853C153.302 18.4901 153.311 18.4974 153.322 18.5079V19.0605H153.169H148.772V18.5079H148.818C149.044 18.5079 149.223 18.4338 149.356 18.2855C149.489 18.1373 149.572 17.9763 149.602 17.8023C149.602 17.7716 149.605 17.7435 149.609 17.7177C149.615 17.6919 149.618 17.6637 149.618 17.6331C149.618 17.6129 149.613 17.5799 149.602 17.5332C149.592 17.4873 149.576 17.4437 149.556 17.4027C149.556 17.393 149.556 17.3825 149.556 17.3721C149.556 17.3624 149.551 17.3519 149.541 17.3415C149.53 17.3004 149.52 17.2649 149.51 17.2343C149.5 17.2037 149.489 17.1779 149.479 17.1578L149.003 16.1597H144.252L143.853 17.0651C143.843 17.0861 143.835 17.1063 143.83 17.1272C143.825 17.1473 143.817 17.1675 143.807 17.1884C143.786 17.2295 143.766 17.2754 143.745 17.3261C143.725 17.3777 143.709 17.4341 143.699 17.4953C143.689 17.5259 143.684 17.5589 143.684 17.5952C143.684 17.6307 143.684 17.6693 143.684 17.7104C143.684 17.8739 143.753 18.0294 143.891 18.1784C144.03 18.3267 144.294 18.4362 144.683 18.5079V19.0605H144.529H141.516V18.5079ZM146.62 11.1726L144.714 15.2849V15.347H148.556V15.3011L146.62 11.1726ZM156.904 8.31783H160.532L163.621 17.3261C163.632 17.3673 163.645 17.4083 163.66 17.4494C163.675 17.4897 163.693 17.5307 163.713 17.5719C163.795 17.8175 163.896 18.0221 164.013 18.1857C164.131 18.3492 164.323 18.4571 164.59 18.5079V19.0605H164.436H161.577L158.825 11.0188H158.794C158.723 11.3869 158.633 11.797 158.526 12.2465C158.418 12.6967 158.303 13.1519 158.179 13.6127C158.118 13.8889 158.049 14.1596 157.972 14.4263C157.895 14.6921 157.821 14.9474 157.749 15.1931C157.657 15.521 157.562 15.8279 157.465 16.1138C157.368 16.4006 157.277 16.6511 157.196 16.8662C157.104 17.0909 157.011 17.2979 156.919 17.4873C156.827 17.6765 156.734 17.8481 156.642 18.0012C156.376 18.462 156.099 18.7793 155.812 18.9533C155.526 19.1273 155.188 19.2143 154.798 19.2143L154.644 19.2297C154.234 19.2192 153.919 19.1121 153.699 18.9066C153.479 18.702 153.353 18.4773 153.322 18.2316C153.322 18.2115 153.322 18.1905 153.322 18.1703C153.322 18.1502 153.322 18.1293 153.322 18.1091C153.322 18.0681 153.324 18.0294 153.33 17.9939C153.335 17.9585 153.342 17.9199 153.353 17.8787C153.394 17.6943 153.496 17.5211 153.66 17.3567C153.824 17.1933 154.044 17.1119 154.321 17.1119H154.475C154.557 17.1119 154.636 17.1215 154.713 17.1425C154.79 17.1627 154.864 17.1884 154.936 17.219C154.966 17.2295 154.995 17.2391 155.02 17.2497C155.046 17.2601 155.069 17.2754 155.09 17.2955C155.162 17.3261 155.23 17.3543 155.297 17.3801C155.364 17.4059 155.428 17.4237 155.489 17.4341C155.572 17.4237 155.646 17.393 155.712 17.3415C155.779 17.2907 155.848 17.2239 155.92 17.1425C156.063 16.9475 156.215 16.6463 156.374 16.2371C156.532 15.8279 156.719 15.2753 156.934 14.5793C156.976 14.4263 157.045 14.1935 157.142 13.8809C157.24 13.5691 157.34 13.2187 157.442 12.8297C157.473 12.7072 157.506 12.5815 157.541 12.4542C157.578 12.3262 157.611 12.1957 157.641 12.0628C157.734 11.6633 157.816 11.2726 157.887 10.8883C157.959 10.5048 157.995 10.185 157.995 9.92968C157.995 9.87817 157.99 9.80883 157.979 9.72183C157.97 9.63568 157.949 9.54543 157.918 9.45363C157.867 9.31023 157.765 9.17728 157.611 9.05488C157.457 8.93163 157.222 8.87043 156.904 8.87043C156.893 8.87043 156.88 8.87043 156.865 8.87043C156.85 8.87043 156.837 8.87043 156.827 8.87043C156.817 8.87043 156.804 8.87043 156.788 8.87043C156.773 8.87043 156.76 8.87043 156.75 8.87043V8.31783H156.904ZM169.34 8.31783V8.87043C169.084 8.90103 168.904 8.97757 168.801 9.10083C168.699 9.22323 168.638 9.35617 168.617 9.49957C168.597 9.56077 168.587 9.62283 168.587 9.68403C168.587 9.74523 168.587 9.80643 168.587 9.86771C168.587 9.86771 168.587 9.87088 168.587 9.87568C168.587 9.88057 168.587 9.88374 168.587 9.88374V12.7072H169.955C171.144 12.7072 172.032 12.8812 172.622 13.2292C173.211 13.5764 173.623 13.955 173.859 14.3642C174.033 14.6816 174.138 14.9813 174.175 15.2624C174.21 15.5435 174.228 15.7505 174.228 15.8835C174.228 15.9656 174.225 16.0445 174.221 16.1219C174.216 16.1984 174.208 16.2773 174.197 16.3595C174.085 17.0345 173.731 17.654 173.137 18.2163C172.542 18.7793 171.646 19.0605 170.447 19.0605H170.293H165.358V18.5079C165.646 18.4773 165.84 18.3798 165.943 18.2163C166.045 18.0527 166.102 17.8787 166.112 17.6943C166.122 17.6637 166.127 17.6307 166.127 17.5952C166.127 17.5589 166.127 17.5259 166.127 17.4953V9.88374C166.127 9.88374 166.127 9.88057 166.127 9.87568C166.127 9.87088 166.127 9.86771 166.127 9.86771C166.127 9.80643 166.127 9.74523 166.127 9.68403C166.127 9.62283 166.117 9.56077 166.096 9.49957C166.076 9.35617 166.014 9.22323 165.912 9.10083C165.809 8.97757 165.63 8.90103 165.374 8.87043V8.31783H165.528H169.34ZM168.587 13.5208V18.2469H169.386C169.97 18.2469 170.48 18.0987 170.916 17.8023C171.351 17.505 171.569 16.8911 171.569 15.9608C171.569 15.2648 171.415 14.684 171.108 14.2184C170.8 13.7536 170.222 13.5208 169.37 13.5208H168.587ZM179.516 8.31783V8.87043C179.475 8.87043 179.427 8.87848 179.37 8.89374C179.314 8.90908 179.261 8.93163 179.209 8.96223C179.097 9.01383 178.991 9.10083 178.894 9.22323C178.797 9.34648 178.748 9.52048 178.748 9.74522V13.1213H183.944V9.74522C183.944 9.71462 183.944 9.68163 183.944 9.64537C183.944 9.60988 183.939 9.57603 183.928 9.54543C183.907 9.39243 183.846 9.25143 183.744 9.12337C183.641 8.99608 183.457 8.91148 183.19 8.87043V8.31783H183.344H187.172V8.87043C186.915 8.91148 186.724 9.00088 186.595 9.13948C186.467 9.27723 186.403 9.47942 186.403 9.74522L186.418 17.6331C186.418 17.8787 186.462 18.0576 186.549 18.1703C186.636 18.2831 186.793 18.375 187.018 18.4467C187.039 18.4571 187.062 18.4668 187.087 18.4773C187.113 18.4877 187.141 18.4974 187.172 18.5079V19.0605H187.018H183.19V18.5079C183.222 18.4974 183.249 18.4877 183.275 18.4773C183.301 18.4668 183.324 18.4571 183.344 18.4467C183.569 18.375 183.726 18.2831 183.813 18.1703C183.9 18.0576 183.944 17.8787 183.944 17.6331V13.9349H178.748V17.6331C178.748 17.8586 178.797 18.0399 178.894 18.1784C178.991 18.3161 179.199 18.4265 179.516 18.5079V19.0605H179.363H175.535V18.5079C175.832 18.4056 176.032 18.2928 176.135 18.1703C176.237 18.0479 176.289 17.8683 176.289 17.6331V9.74522C176.289 9.52048 176.242 9.34888 176.15 9.23128C176.058 9.11368 175.955 9.02908 175.842 8.97757C175.792 8.94697 175.738 8.92434 175.681 8.90908C175.625 8.89374 175.576 8.88088 175.535 8.87043V8.31783H175.689H179.516ZM192.383 8.31783V8.87043C192.127 8.90103 191.947 8.97757 191.845 9.10083C191.742 9.22323 191.681 9.35617 191.661 9.49957C191.64 9.56077 191.63 9.62283 191.63 9.68403C191.63 9.74523 191.63 9.80643 191.63 9.86771C191.63 9.86771 191.63 9.87088 191.63 9.87568C191.63 9.88057 191.63 9.88374 191.63 9.88374V12.7072H192.998C194.187 12.7072 195.076 12.8812 195.665 13.2292C196.254 13.5764 196.667 13.955 196.902 14.3642C197.077 14.6816 197.182 14.9813 197.218 15.2624C197.253 15.5435 197.271 15.7505 197.271 15.8835C197.271 15.9656 197.269 16.0445 197.264 16.1219C197.259 16.1984 197.251 16.2773 197.241 16.3595C197.128 17.0345 196.774 17.654 196.18 18.2163C195.586 18.7793 194.689 19.0605 193.49 19.0605H193.336H188.402V18.5079C188.689 18.4773 188.884 18.3798 188.986 18.2163C189.088 18.0527 189.145 17.8787 189.155 17.6943C189.165 17.6637 189.171 17.6307 189.171 17.5952C189.171 17.5589 189.171 17.5259 189.171 17.4953V9.88374C189.171 9.88374 189.171 9.88057 189.171 9.87568C189.171 9.87088 189.171 9.86771 189.171 9.86771C189.171 9.80643 189.171 9.74523 189.171 9.68403C189.171 9.62283 189.16 9.56077 189.139 9.49957C189.119 9.35617 189.058 9.22323 188.955 9.10083C188.853 8.97757 188.674 8.90103 188.417 8.87043V8.31783H188.571H192.383ZM191.63 13.5208V18.2469H192.429C193.013 18.2469 193.523 18.0987 193.959 17.8023C194.395 17.505 194.613 16.8911 194.613 15.9608C194.613 15.2648 194.458 14.684 194.151 14.2184C193.844 13.7536 193.265 13.5208 192.414 13.5208H191.63ZM201.622 8.31783V8.87043C201.356 8.91148 201.171 8.99608 201.069 9.12337C200.966 9.25143 200.905 9.39243 200.884 9.54543C200.874 9.57603 200.868 9.60988 200.868 9.64537C200.868 9.68163 200.868 9.71462 200.868 9.74522V17.6331C200.868 17.6637 200.868 17.6975 200.868 17.7329C200.868 17.7692 200.874 17.8023 200.884 17.8329C200.905 17.9859 200.966 18.1269 201.069 18.2549C201.171 18.3831 201.356 18.4668 201.622 18.5079V19.0605H201.468H197.641V18.5079C197.681 18.5079 197.73 18.5007 197.787 18.4853C197.843 18.47 197.897 18.4467 197.948 18.4161C198.06 18.3645 198.166 18.2775 198.263 18.1551C198.361 18.0326 198.409 17.8586 198.409 17.6331V9.74522C198.409 9.52048 198.361 9.34648 198.263 9.22323C198.166 9.10083 198.06 9.01383 197.948 8.96223C197.897 8.93163 197.843 8.90908 197.787 8.89374C197.73 8.87848 197.681 8.87043 197.641 8.87043V8.31783H197.794H201.622ZM203.082 8.31783H206.91V8.87043C206.9 8.88088 206.887 8.88568 206.872 8.88568C206.856 8.88568 206.843 8.89134 206.833 8.90103C206.833 8.90103 206.828 8.90103 206.818 8.90103C206.807 8.90103 206.794 8.90343 206.779 8.90908C206.764 8.91388 206.741 8.92194 206.71 8.93163C206.679 8.94208 206.643 8.95503 206.602 8.97028C206.561 8.98563 206.521 9.00894 206.48 9.03954C206.397 9.09028 206.321 9.17248 206.249 9.28528C206.177 9.39723 206.141 9.55108 206.141 9.74522V15.4082L210.907 10.4509V9.74522C210.907 9.54063 210.85 9.35377 210.738 9.18534C210.625 9.01623 210.425 8.91148 210.138 8.87043V8.31783H210.291H214.119V8.87043C213.853 8.91148 213.668 8.99608 213.566 9.12337C213.463 9.25143 213.402 9.39243 213.382 9.54543C213.371 9.57603 213.366 9.60988 213.366 9.64537C213.366 9.68163 213.366 9.71462 213.366 9.74522V17.6331C213.366 17.6637 213.366 17.6975 213.366 17.7329C213.366 17.7692 213.371 17.8023 213.382 17.8329C213.402 17.9859 213.463 18.1269 213.566 18.2549C213.668 18.3831 213.853 18.4668 214.119 18.5079V19.0605H213.966H210.138V18.5079C210.353 18.4773 210.512 18.4137 210.615 18.3161C210.717 18.2187 210.794 18.1196 210.845 18.0173C210.866 17.9456 210.881 17.8763 210.891 17.8095C210.901 17.7435 210.907 17.6846 210.907 17.6331V11.863L206.141 16.8356V17.6331C206.141 17.8377 206.198 18.0221 206.31 18.1857C206.423 18.3492 206.623 18.4571 206.91 18.5079V19.0605H206.756H202.928V18.5079C203.195 18.4668 203.379 18.3831 203.482 18.2549C203.584 18.1269 203.646 17.9859 203.666 17.8329C203.676 17.8023 203.682 17.7692 203.682 17.7329C203.682 17.6975 203.682 17.6637 203.682 17.6331V9.74522C203.682 9.71462 203.682 9.68163 203.682 9.64537C203.682 9.60988 203.676 9.57603 203.666 9.54543C203.646 9.39243 203.584 9.25143 203.482 9.12337C203.379 8.99608 203.195 8.91148 202.928 8.87043V8.31783H203.082ZM208.555 6.00105C208.678 6.00105 208.816 5.993 208.97 5.97774C209.124 5.9624 209.277 5.9342 209.431 5.89314C209.8 5.8214 210.14 5.70628 210.454 5.5484C210.766 5.38965 210.922 5.18745 210.922 4.9418C210.922 4.8806 210.912 4.8242 210.891 4.77345C210.871 4.72185 210.82 4.69125 210.738 4.6808C210.686 4.69125 210.635 4.7066 210.583 4.72674C210.533 4.74765 210.481 4.77345 210.43 4.80405C210.42 4.80405 210.41 4.80645 210.399 4.81125C210.389 4.81614 210.384 4.81931 210.384 4.81931C210.323 4.85 210.261 4.87571 210.199 4.89585C210.138 4.916 210.077 4.92645 210.015 4.92645H209.861C209.841 4.92645 209.82 4.92645 209.8 4.92645C209.779 4.92645 209.754 4.92165 209.723 4.9112C209.6 4.89105 209.484 4.83705 209.377 4.75005C209.27 4.66305 209.216 4.54305 209.216 4.3892C209.216 4.2152 209.29 4.05971 209.438 3.9212C209.587 3.78345 209.81 3.71411 210.107 3.71411H210.261C210.701 3.71411 211.047 3.83171 211.298 4.067C211.549 4.3022 211.675 4.589 211.675 4.92645C211.675 5.54034 211.368 6.0728 210.753 6.52228C210.138 6.97254 209.462 7.19814 208.723 7.19814H208.57H208.477C208.468 7.19814 208.457 7.19814 208.447 7.19814C208.437 7.19814 208.427 7.19814 208.416 7.19814C208.406 7.19814 208.396 7.19814 208.385 7.19814C208.375 7.19814 208.365 7.19814 208.355 7.19814C207.607 7.19814 206.923 6.97014 206.303 6.515C205.682 6.05985 205.372 5.5298 205.372 4.92645C205.372 4.589 205.498 4.3022 205.749 4.067C206 3.83171 206.346 3.71411 206.787 3.71411H206.94C207.197 3.71411 207.389 3.76005 207.517 3.85185C207.646 3.94451 207.735 4.04685 207.786 4.1588C207.796 4.19985 207.807 4.241 207.817 4.28205C207.827 4.32311 207.832 4.3586 207.832 4.3892C207.832 4.52214 207.786 4.63245 207.694 4.71945C207.602 4.80645 207.499 4.86525 207.386 4.89585C207.356 4.90631 207.32 4.9136 207.278 4.91925C207.238 4.92405 207.202 4.92645 207.171 4.92645H207.018C206.966 4.92645 206.907 4.9136 206.841 4.8878C206.774 4.86285 206.705 4.83465 206.633 4.80405C206.623 4.7936 206.613 4.78554 206.602 4.78065C206.592 4.77585 206.582 4.77345 206.572 4.77345C206.53 4.75245 206.487 4.7348 206.441 4.71945C206.395 4.70411 206.351 4.69125 206.31 4.6808C206.249 4.70171 206.205 4.72674 206.179 4.75734C206.154 4.78871 206.136 4.8242 206.126 4.86525C206.116 4.87571 206.111 4.8878 206.111 4.90314C206.111 4.91925 206.111 4.93134 206.111 4.9418C206.111 5.003 206.136 5.07225 206.187 5.1488C206.238 5.22611 206.31 5.30505 206.403 5.38725C206.587 5.5298 206.859 5.666 207.217 5.79328C207.576 5.92134 208.021 5.9906 208.555 6.00105Z" fill="white"/>
<path d="M84.8745 25.844H93.1081L99.2235 42.5903L105.339 25.844H105.68H113.47V27.0716C113.037 27.1401 112.707 27.2705 112.479 27.4639C112.251 27.6572 112.081 27.8562 111.967 28.0608C111.876 28.2654 111.824 28.4531 111.813 28.6239C111.801 28.7939 111.796 28.9252 111.796 29.0162V46.581C111.796 47.0579 111.893 47.422 112.086 47.6725C112.28 47.9222 112.491 48.1156 112.718 48.2517C112.854 48.3202 112.992 48.3717 113.128 48.4055C113.265 48.4394 113.379 48.4684 113.47 48.4909V49.7186H113.128H104.622V48.4909C105.099 48.4224 105.453 48.292 105.68 48.0986C105.908 47.9053 106.079 47.6951 106.193 47.4679C106.261 47.2859 106.301 47.1151 106.312 46.9556C106.323 46.7969 106.33 46.6721 106.33 46.581V29.3908L98.9161 49.7186H98.574H96.1832L88.6669 29.1185V46.2395C88.6669 46.9677 88.8033 47.4904 89.0768 47.8086C89.3503 48.1268 89.6578 48.3314 89.999 48.4224C90.0902 48.4451 90.1871 48.4619 90.2896 48.474C90.392 48.4853 90.4889 48.4909 90.5801 48.4909V49.7186H90.2379H84.5332V48.4909C85.0794 48.4909 85.4837 48.3661 85.746 48.1156C86.0074 47.8658 86.1841 47.5928 86.2753 47.2971C86.3665 47.0699 86.4173 46.8533 86.4285 46.6486C86.4406 46.444 86.4463 46.2966 86.4463 46.2056V29.8685C86.4463 28.9816 86.2809 28.2936 85.9509 27.8055C85.6201 27.3165 85.148 27.0716 84.5332 27.0716V25.844H84.8745Z" fill="white"/>
<path d="M126.491 25.844V27.0377H126.423C126.355 27.0377 126.286 27.0434 126.218 27.0547C126.15 27.0659 126.07 27.0716 125.979 27.0716C125.705 27.1175 125.444 27.2311 125.193 27.4132C124.943 27.5944 124.828 27.8788 124.851 28.2654C124.851 28.4249 124.891 28.6182 124.971 28.8454C125.051 29.0726 125.17 29.3231 125.329 29.5954L130.42 37.9859L133.768 30.1077C133.791 30.0617 133.819 29.9989 133.853 29.92C133.888 29.8403 133.916 29.7549 133.939 29.6639C133.961 29.6187 133.978 29.5672 133.99 29.5108C134.002 29.4536 134.019 29.3908 134.041 29.3231C134.087 29.1862 134.121 29.0556 134.144 28.9308C134.166 28.8059 134.178 28.6972 134.178 28.607C134.178 28.1519 133.996 27.8167 133.631 27.6009C133.267 27.3841 132.857 27.2423 132.402 27.1739C132.31 27.1513 132.219 27.1344 132.128 27.1232C132.037 27.1119 131.946 27.0941 131.855 27.0716V25.844H132.197H138.551V27.0716C137.89 27.3221 137.424 27.6403 137.15 28.027C136.877 28.4136 136.627 28.8454 136.399 29.3231C136.376 29.3908 136.353 29.4536 136.33 29.5108C136.308 29.5672 136.284 29.63 136.262 29.6976L130.283 43.7842C129.554 45.5121 128.609 46.9902 127.447 48.2178C126.286 49.4455 124.692 50.0593 122.665 50.0593L122.323 50.0939C121.139 50.0714 120.228 49.8837 119.59 49.5309C118.952 49.1789 118.496 48.7865 118.224 48.354C118.019 48.0358 117.887 47.7401 117.831 47.4679C117.773 47.1948 117.745 46.9789 117.745 46.8194C117.745 46.751 117.745 46.6833 117.745 46.6148C117.745 46.5464 117.756 46.4787 117.779 46.4102C117.848 45.7964 118.081 45.239 118.479 44.7387C118.878 44.2385 119.51 43.9888 120.376 43.9888H120.717C121.378 43.9888 121.885 44.1137 122.238 44.3641C122.591 44.6139 122.858 44.8982 123.041 45.2164C123.155 45.3984 123.234 45.5805 123.28 45.7625C123.325 45.9438 123.36 46.092 123.382 46.2056C123.382 46.2507 123.393 46.3079 123.416 46.3764C123.439 46.4441 123.451 46.5012 123.451 46.5464C123.519 46.7743 123.627 46.9789 123.775 47.161C123.923 47.3423 124.179 47.4445 124.544 47.4679C124.726 47.4445 125.027 47.3423 125.449 47.161C125.871 46.9789 126.309 46.5697 126.765 45.9325C126.924 45.6828 127.089 45.4041 127.26 45.0972C127.43 44.7903 127.596 44.4318 127.756 44.0226L118.599 28.9139C118.349 28.4813 118.07 28.1405 117.762 27.89C117.455 27.6403 117.142 27.4357 116.823 27.2762C116.732 27.2311 116.635 27.1908 116.532 27.157C116.43 27.1232 116.322 27.0941 116.208 27.0716V25.844H116.549H126.491Z" fill="white"/>
<path d="M142.485 31.2668L142.861 25.6055H143.202H144.467C144.489 25.6506 144.506 25.6901 144.518 25.7247C144.529 25.7585 144.558 25.7988 144.603 25.8439C144.672 25.9575 144.785 26.0711 144.945 26.1846C145.104 26.299 145.332 26.3667 145.628 26.3892C145.742 26.3892 145.851 26.3779 145.953 26.3554C146.055 26.3329 146.164 26.3103 146.277 26.2869C146.436 26.2418 146.607 26.1903 146.79 26.1339C146.972 26.0767 147.177 26.0147 147.405 25.9462C147.587 25.9011 147.792 25.8552 148.019 25.8101C148.247 25.7641 148.509 25.719 148.805 25.6731C148.988 25.6506 149.181 25.628 149.386 25.6055C149.591 25.5821 149.796 25.5595 150.001 25.537C150.275 25.5144 150.536 25.4975 150.787 25.4854C151.037 25.4742 151.265 25.4685 151.471 25.4685H151.812C152.267 25.4685 152.751 25.4975 153.263 25.5539C153.776 25.6111 154.295 25.6965 154.818 25.8101C156.276 26.1733 157.626 26.8331 158.867 27.7877C160.108 28.743 160.797 30.1076 160.934 31.8806C160.934 31.9491 160.934 32.0176 160.934 32.0852C160.934 32.1537 160.934 32.2101 160.934 32.256C160.934 33.3701 160.632 34.3367 160.029 35.1552C159.425 35.9736 158.758 36.61 158.03 37.065V37.2359C158.69 37.6217 159.243 38.0196 159.686 38.4288C160.131 38.8389 160.501 39.2481 160.797 39.6573C161.207 40.2486 161.486 40.8277 161.634 41.3964C161.782 41.9652 161.856 42.4992 161.856 42.9995C161.856 44.8869 161.236 46.353 159.994 47.3994C158.753 48.445 157.392 49.1844 155.912 49.6162C155.319 49.7523 154.727 49.8603 154.135 49.94C153.543 50.0198 152.996 50.0592 152.495 50.0592L152.153 50.0939C150.923 50.0713 149.841 49.9175 148.908 49.6332C147.974 49.3488 147.12 49.0249 146.346 48.6608C145.662 48.3426 145.036 48.0414 144.467 47.757C143.897 47.4735 143.327 47.3083 142.758 47.2632C142.69 47.2398 142.628 47.2286 142.57 47.2286C142.513 47.2286 142.451 47.2286 142.383 47.2286H142.724C142.679 47.2286 142.633 47.2286 142.587 47.2286C142.542 47.2286 142.496 47.2286 142.451 47.2286C142.109 47.2286 141.739 47.2398 141.341 47.2632C140.942 47.2858 140.538 47.3655 140.128 47.5017C140.059 47.5242 139.991 47.5524 139.923 47.5871C139.855 47.6208 139.786 47.649 139.718 47.6724H139.376L138.556 46.3079C138.67 46.1943 138.784 46.0751 138.898 45.9494C139.012 45.8245 139.137 45.694 139.274 45.5579C139.797 45.0802 140.395 44.625 141.067 44.1933C141.739 43.7616 142.428 43.4659 143.135 43.3064C143.293 43.2839 143.448 43.2613 143.595 43.2379C143.744 43.2154 143.886 43.2041 144.022 43.2041H144.364C145.093 43.2041 145.742 43.4031 146.311 43.801C146.881 44.199 147.393 44.6364 147.848 45.114C147.986 45.2502 148.111 45.3871 148.224 45.5232C148.338 45.6602 148.452 45.785 148.567 45.8987C148.658 45.9897 148.742 46.0863 148.822 46.1886C148.902 46.2909 148.988 46.3876 149.079 46.4786C149.466 46.9104 149.899 47.314 150.377 47.6893C150.855 48.0648 151.436 48.2629 152.119 48.2862C153.076 48.2403 153.936 47.8255 154.699 47.0409C155.461 46.2563 155.843 44.8296 155.843 42.761C155.843 41.9877 155.724 41.2998 155.484 40.6973C155.245 40.0947 154.932 39.5091 154.545 38.9412C153.77 39.3045 153.013 39.5663 152.273 39.7249C151.533 39.8844 150.832 39.9642 150.172 39.9642H149.83C148.168 39.9642 146.978 39.6686 146.26 39.0774C145.543 38.486 145.184 37.7812 145.184 36.9628C145.184 36.9402 145.184 36.9112 145.184 36.8774C145.184 36.8436 145.184 36.8146 145.184 36.792C145.229 36.1097 145.537 35.4902 146.106 34.9336C146.676 34.3762 147.678 34.0974 149.113 34.0974H149.454C150.16 34.0974 150.907 34.1772 151.692 34.3367C152.478 34.4954 153.474 34.8257 154.681 35.3259C154.887 35.0754 155.063 34.8192 155.211 34.5582C155.359 34.2965 155.478 34.0298 155.57 33.7567C155.683 33.4152 155.763 33.0801 155.809 32.7506C155.854 32.4211 155.877 32.1198 155.877 31.8468C155.877 30.4596 155.473 29.4019 154.664 28.6746C153.856 27.9472 152.962 27.4695 151.983 27.2423C151.778 27.1964 151.567 27.1569 151.35 27.1231C151.134 27.0884 150.923 27.0715 150.719 27.0715C150.445 27.0715 150.167 27.0941 149.882 27.14C149.597 27.1851 149.307 27.2423 149.01 27.3108C147.963 27.538 146.978 27.9754 146.055 28.6238C145.132 29.2715 144.467 30.1527 144.057 31.2668H143.715H142.485ZM153.179 37.1335C152.859 36.9289 152.518 36.7469 152.153 36.5874C151.789 36.4287 151.413 36.303 151.026 36.212C150.707 36.121 150.388 36.0477 150.07 35.9904C149.75 35.9341 149.454 35.9051 149.181 35.9051C148.567 35.9285 148.128 36.0186 147.866 36.1782C147.604 36.3377 147.438 36.5076 147.371 36.6897C147.371 36.7356 147.365 36.7807 147.354 36.8258C147.342 36.8718 147.336 36.9168 147.336 36.9628C147.336 37.2584 147.501 37.5251 147.831 37.7643C148.162 38.0028 148.851 38.134 149.899 38.1566C150.605 38.134 151.18 38.0543 151.624 37.9173C152.068 37.7812 152.438 37.6217 152.734 37.4405C152.825 37.3945 152.905 37.3438 152.973 37.2866C153.042 37.2302 153.11 37.1786 153.179 37.1335Z" fill="white"/>
<path d="M164.763 25.844H181.674C182.129 25.844 182.471 25.8158 182.698 25.7585C182.926 25.7022 183.108 25.5257 183.245 25.2301H183.587H184.441V31.3354H184.099H182.869C182.436 29.7436 181.776 28.7318 180.888 28.2993C179.999 27.8674 178.827 27.6516 177.369 27.6516H172.005V36.2806H175.456C176.367 36.2806 177.084 36.1275 177.608 35.8198C178.132 35.5128 178.394 34.9618 178.394 34.166V34.0975H178.736H179.966V40.2365H179.623H178.394C178.348 39.6687 178.206 39.2368 177.967 38.9412C177.728 38.6456 177.483 38.4289 177.233 38.2928C177.004 38.2018 176.788 38.1454 176.583 38.122C176.378 38.0994 176.23 38.0882 176.139 38.0882H172.005V47.911H179.863C181.252 47.911 182.408 47.4848 183.33 46.6318C184.253 45.7795 184.805 44.7959 184.988 43.6818H185.329H186.559V49.7186H186.217H164.763V48.4909C165.354 48.4224 165.77 48.246 166.009 47.9617C166.248 47.6782 166.402 47.3656 166.471 47.0241C166.494 46.8879 166.51 46.751 166.522 46.6148C166.533 46.4787 166.539 46.353 166.539 46.2394V29.323C166.539 29.232 166.539 29.1354 166.539 29.0331C166.539 28.9308 166.527 28.8341 166.505 28.7431C166.459 28.379 166.322 28.0326 166.095 27.7031C165.867 27.3729 165.423 27.1626 164.763 27.0716V25.844Z" fill="white"/>
<path d="M201.806 22.762C202.08 22.762 202.387 22.7545 202.729 22.7395C203.071 22.7244 203.412 22.6969 203.754 22.6567C204.574 22.5866 205.332 22.4739 206.026 22.3186C206.721 22.1633 207.069 21.9654 207.069 21.7249C207.069 21.6648 207.046 21.6097 207 21.5596C206.955 21.5095 206.841 21.4795 206.659 21.4694C206.545 21.4795 206.431 21.4944 206.317 21.5144C206.203 21.5345 206.089 21.5596 205.975 21.5896C205.952 21.5896 205.93 21.5922 205.907 21.5971C205.884 21.6022 205.873 21.6047 205.873 21.6047C205.736 21.6348 205.599 21.6597 205.463 21.6798C205.326 21.6998 205.189 21.7099 205.053 21.7099H204.711C204.666 21.7099 204.62 21.7099 204.574 21.7099C204.529 21.7099 204.472 21.7049 204.403 21.6949C204.13 21.6748 203.874 21.6222 203.635 21.537C203.395 21.4518 203.276 21.3341 203.276 21.1838C203.276 21.0134 203.441 20.8607 203.771 20.7253C204.102 20.5901 204.597 20.5225 205.258 20.5225H205.599C206.579 20.5225 207.348 20.6377 207.906 20.8681C208.464 21.0986 208.743 21.3792 208.743 21.7099C208.743 22.3111 208.06 22.8321 206.693 23.273C205.326 23.7139 203.823 23.9343 202.182 23.9343H201.841H201.636C201.613 23.9343 201.59 23.9343 201.567 23.9343C201.544 23.9343 201.522 23.9343 201.499 23.9343C201.476 23.9343 201.453 23.9343 201.431 23.9343C201.408 23.9343 201.385 23.9343 201.362 23.9343C199.7 23.9343 198.179 23.7114 196.801 23.2655C195.423 22.8196 194.733 22.3011 194.733 21.7099C194.733 21.3792 195.013 21.0986 195.571 20.8681C196.129 20.6377 196.898 20.5225 197.877 20.5225H198.219C198.788 20.5225 199.215 20.5676 199.5 20.6578C199.785 20.7479 199.984 20.8481 200.098 20.9584C200.121 20.9985 200.144 21.0385 200.167 21.0787C200.189 21.1187 200.201 21.1537 200.201 21.1838C200.201 21.3141 200.098 21.4218 199.893 21.507C199.688 21.5922 199.46 21.6497 199.21 21.6798C199.141 21.6898 199.062 21.6973 198.971 21.7023C198.879 21.7074 198.8 21.7099 198.731 21.7099H198.39C198.276 21.7099 198.145 21.6973 197.997 21.6723C197.849 21.6472 197.695 21.6197 197.535 21.5896C197.513 21.5796 197.49 21.5721 197.467 21.5671C197.444 21.5621 197.421 21.5596 197.399 21.5596C197.308 21.5395 197.211 21.5221 197.108 21.507C197.006 21.492 196.909 21.4795 196.818 21.4694C196.681 21.4895 196.584 21.5144 196.527 21.5445C196.47 21.5745 196.431 21.6097 196.408 21.6497C196.385 21.6597 196.374 21.6723 196.374 21.6872C196.374 21.7023 196.374 21.7149 196.374 21.7249C196.374 21.785 196.431 21.8526 196.544 21.9278C196.658 22.003 196.818 22.0806 197.023 22.1607C197.433 22.3011 198.037 22.4339 198.834 22.559C199.631 22.6843 200.622 22.752 201.806 22.762Z" fill="white"/>
<path d="M189.642 25.8373H198.15V27.0655C198.127 27.0882 198.099 27.0994 198.065 27.0994C198.031 27.0994 198.002 27.1109 197.979 27.1337C197.979 27.1337 197.968 27.1337 197.945 27.1337C197.923 27.1337 197.894 27.1395 197.86 27.1507C197.826 27.1622 197.774 27.1791 197.706 27.2019C197.638 27.2247 197.558 27.2531 197.467 27.2871C197.376 27.3213 197.285 27.3725 197.194 27.4407C197.011 27.5544 196.84 27.7363 196.681 27.9864C196.522 28.2365 196.442 28.5777 196.442 29.0097V41.5972L207.034 30.579V29.0097C207.034 28.555 206.909 28.14 206.658 27.7647C206.408 27.3895 205.964 27.1564 205.326 27.0655V25.8373H205.668H214.176V27.0655C213.583 27.1564 213.174 27.3441 212.946 27.6284C212.718 27.9124 212.581 28.2252 212.536 28.5663C212.513 28.6345 212.502 28.7085 212.502 28.7881C212.502 28.8675 212.502 28.9415 212.502 29.0097V46.5434C212.502 46.6116 212.502 46.6856 212.502 46.7652C212.502 46.8447 212.513 46.9186 212.536 46.9869C212.581 47.3282 212.718 47.6407 212.946 47.925C213.174 48.2093 213.583 48.3969 214.176 48.4879V49.7159H213.834H205.326V48.4879C205.804 48.4197 206.157 48.2775 206.385 48.0615C206.613 47.8453 206.784 47.6237 206.898 47.3963C206.943 47.237 206.978 47.0835 207 46.9356C207.023 46.788 207.034 46.657 207.034 46.5434V33.7173L196.442 44.7695V46.5434C196.442 46.9983 196.567 47.4076 196.818 47.7716C197.068 48.1353 197.512 48.3742 198.15 48.4879V49.7159H197.809H189.3V48.4879C189.893 48.3969 190.303 48.2093 190.531 47.925C190.758 47.6407 190.895 47.3282 190.94 46.9869C190.963 46.9186 190.975 46.8447 190.975 46.7652C190.975 46.6856 190.975 46.6116 190.975 46.5434V29.0097C190.975 28.9415 190.975 28.8675 190.975 28.7881C190.975 28.7085 190.963 28.6345 190.94 28.5663C190.895 28.2252 190.758 27.9124 190.531 27.6284C190.303 27.3441 189.893 27.1564 189.3 27.0655V25.8373H189.642Z" fill="white"/>
<path d="M84.0478 54.5043H85.0508C85.2856 54.6275 85.5317 54.7202 85.7908 54.7814C86.0506 54.8434 86.3394 54.874 86.6566 54.874H97.8442C98.012 54.874 98.1669 54.8651 98.309 54.8475C98.451 54.8297 98.597 54.812 98.7471 54.7951C98.8649 54.7596 98.9819 54.7202 99.0989 54.6759C99.2159 54.6323 99.341 54.5752 99.4749 54.5043H99.7266H100.705V59.2538H100.454H99.5499C99.3168 58.673 99.0489 58.1985 98.7471 57.8288C98.4461 57.4598 98.1371 57.169 97.8191 56.9579C97.4019 56.6591 97.0001 56.4747 96.6152 56.4046C96.2304 56.3337 95.9132 56.299 95.6623 56.299L94.2575 56.2725V70.9945C94.2575 71.3812 94.3366 71.6938 94.4963 71.9314C94.6545 72.1682 94.9934 72.3575 95.5114 72.4984V73.4482H95.2613H89.0143V72.4984C89.0652 72.4807 89.1111 72.463 89.1523 72.4453C89.1942 72.4284 89.2322 72.4107 89.2661 72.3929C89.6332 72.2697 89.8882 72.1118 90.031 71.9176C90.1722 71.7244 90.244 71.4166 90.244 70.9945V56.2725L89.0894 56.299C88.8392 56.299 88.5673 56.3159 88.2744 56.3514C87.9823 56.3868 87.6846 56.4569 87.3835 56.5624C86.9155 56.7211 86.4605 57.0022 86.0167 57.4066C85.5737 57.811 85.2186 58.4272 84.9507 59.2538H84.6998H83.7969V54.5043H84.0478ZM100.956 72.4984C101.073 72.463 101.261 72.3664 101.52 72.2085C101.779 72.0497 102.05 71.7509 102.335 71.3111C102.419 71.1879 102.498 71.0557 102.574 70.9156C102.649 70.7746 102.72 70.6247 102.786 70.4668L107.854 59.2006C107.905 59.0782 107.951 58.9461 107.992 58.8051C108.034 58.6641 108.063 58.5239 108.08 58.3829C108.114 58.2598 108.135 58.1276 108.143 57.9874C108.151 57.8464 108.155 57.7144 108.155 57.5911C108.155 57.451 108.067 57.3229 107.892 57.2093C107.716 57.0949 107.487 57.0466 107.202 57.0635C107.169 57.0635 107.131 57.0635 107.089 57.0635C107.048 57.0635 107.009 57.0635 106.977 57.0635V56.1137C107.662 56.0614 108.226 55.9333 108.67 55.7311C109.112 55.5289 109.467 55.3138 109.735 55.0851C109.819 55.0319 109.894 54.9707 109.961 54.9006C110.028 54.8297 110.086 54.7596 110.137 54.6896H110.387H111.29L117.863 69.1474C118.381 70.2736 118.808 71.0606 119.142 71.5092C119.477 71.9572 119.803 72.2697 120.121 72.4453C120.137 72.4453 120.154 72.4501 120.171 72.459C120.188 72.4678 120.204 72.4807 120.221 72.4984V73.4482H119.97H112.795V72.4984H112.871C113.239 72.4984 113.532 72.3712 113.749 72.1158C113.967 71.8605 114.101 71.5834 114.151 71.2845C114.151 71.2322 114.155 71.1838 114.163 71.1395C114.171 71.096 114.176 71.0469 114.176 70.9945C114.176 70.9591 114.167 70.9018 114.151 70.8229C114.134 70.744 114.108 70.669 114.076 70.599C114.076 70.5813 114.076 70.5635 114.076 70.5458C114.076 70.5281 114.067 70.5104 114.05 70.4935C114.033 70.4226 114.016 70.3613 114.001 70.3082C113.984 70.2558 113.967 70.2115 113.95 70.1769L113.172 68.4619H105.421L104.768 70.0182C104.752 70.0536 104.739 70.0882 104.731 70.1237C104.722 70.1591 104.71 70.1938 104.693 70.2292C104.66 70.2994 104.626 70.3791 104.593 70.4668C104.56 70.5547 104.535 70.6514 104.518 70.7569C104.501 70.81 104.492 70.8672 104.492 70.9284C104.492 70.9905 104.492 71.0557 104.492 71.1266C104.492 71.4077 104.606 71.676 104.831 71.9314C105.057 72.1859 105.487 72.3752 106.123 72.4984V73.4482H105.873H100.956V72.4984ZM109.284 59.8869L106.174 66.958V67.0635H112.445V66.9845L109.284 59.8869ZM121.476 54.9796H128.248C128.349 54.9796 128.449 54.9796 128.549 54.9796C128.65 54.9796 128.75 54.9796 128.85 54.9796C130.69 54.9796 132.028 55.2873 132.864 55.9027C133.7 56.5181 134.244 57.1867 134.494 57.9077C134.578 58.1719 134.636 58.4224 134.67 58.66C134.703 58.8977 134.72 59.1305 134.72 59.3593C134.72 60.4323 134.456 61.2765 133.93 61.8919C133.403 62.5073 132.822 62.9649 132.187 63.2638C131.952 63.3693 131.727 63.4579 131.51 63.5279C131.292 63.598 131.083 63.6601 130.883 63.7124V63.9766C132.203 64.0999 133.327 64.5873 134.256 65.4403C135.184 66.2934 135.648 67.3978 135.648 68.7519C135.648 70.106 135.301 71.1089 134.607 71.7598C133.913 72.4107 133.157 72.8593 132.337 73.105C131.769 73.2637 131.225 73.3604 130.707 73.395C130.189 73.4305 129.779 73.4482 129.478 73.4482H129.226H121.224V72.4984C121.659 72.4284 121.96 72.2825 122.127 72.0627C122.295 71.8436 122.396 71.6011 122.428 71.3377C122.445 71.2845 122.454 71.2273 122.454 71.1661C122.454 71.104 122.454 71.0469 122.454 70.9945V57.4332C122.454 57.3801 122.454 57.3229 122.454 57.2616C122.454 57.2004 122.445 57.1432 122.428 57.0901C122.396 56.8267 122.295 56.5842 122.127 56.3643C121.96 56.1443 121.659 55.9994 121.224 55.9293V54.9796H121.476ZM126.466 64.53V72.0497H127.672C127.872 72.0497 128.114 72.0369 128.398 72.0103C128.683 71.9837 128.976 71.9176 129.277 71.8121C129.796 71.6365 130.268 71.2982 130.694 70.7963C131.121 70.2953 131.334 69.5083 131.334 68.4353C131.334 67.169 130.983 66.241 130.28 65.6513C129.578 65.0625 128.808 64.7065 127.973 64.5832C127.838 64.5655 127.701 64.5526 127.558 64.5437C127.416 64.5349 127.279 64.53 127.145 64.53H126.466ZM126.466 56.378V63.1324H127.571C128.491 63.1324 129.248 62.8328 129.842 62.2351C130.435 61.6373 130.732 60.8189 130.732 59.7814C130.732 58.6906 130.502 57.9125 130.042 57.4462C129.582 56.9806 129.076 56.6769 128.524 56.5359C128.257 56.4658 127.997 56.4214 127.747 56.4046C127.495 56.3868 127.27 56.378 127.07 56.378H126.466ZM137.781 73.4482V72.4984C137.832 72.4984 137.91 72.4856 138.019 72.459C138.128 72.4324 138.25 72.3752 138.383 72.2874C138.534 72.1996 138.676 72.0497 138.809 71.8387C138.943 71.6277 139.01 71.3377 139.01 70.9679V60.6522C139.01 58.594 139.608 57.1078 140.803 56.1935C141.999 55.2784 143.308 54.7862 144.73 54.7153C144.813 54.6984 144.893 54.6896 144.968 54.6896C145.043 54.6896 145.123 54.6896 145.206 54.6896H145.458C147.714 54.6896 149.416 55.3179 150.562 56.5753C151.707 57.8336 152.28 59.2538 152.28 60.8367C152.28 61.1887 152.256 61.5624 152.205 61.958C152.155 62.3535 152.071 62.7538 151.955 63.1582C151.669 64.1788 151.135 65.1157 150.348 65.9687C149.562 66.8218 148.392 67.2479 146.836 67.2479H146.586C146.168 67.2479 145.641 67.1908 145.006 67.0763C144.37 66.962 143.71 66.6849 143.023 66.2451V70.9679C143.023 71.3377 143.145 71.672 143.387 71.9708C143.63 72.2697 143.952 72.4453 144.353 72.4984V73.4482H144.102H137.781ZM143.023 58.7785V63.2638C143.023 63.8622 143.271 64.3762 143.764 64.8071C144.257 65.2381 144.847 65.4718 145.533 65.5064C146.552 65.4718 147.196 65.0142 147.464 64.1345C147.731 63.2548 147.865 62.1472 147.865 60.8101C147.865 59.4736 147.752 58.3612 147.526 57.4727C147.3 56.5842 146.645 56.1226 145.558 56.088C145.507 56.088 145.458 56.092 145.407 56.1009C145.357 56.1097 145.307 56.1137 145.257 56.1137C144.688 56.2016 144.174 56.4569 143.713 56.879C143.254 57.3011 143.023 57.9343 143.023 58.7785ZM154.663 54.9796H160.909V55.9293C160.893 55.947 160.872 55.9558 160.847 55.9558C160.822 55.9558 160.801 55.9648 160.784 55.9824C160.784 55.9824 160.775 55.9824 160.759 55.9824C160.743 55.9824 160.721 55.9864 160.697 55.9954C160.671 56.0042 160.634 56.0171 160.583 56.0348C160.533 56.0525 160.474 56.0743 160.408 56.1009C160.341 56.1274 160.274 56.167 160.207 56.2192C160.073 56.3071 159.948 56.448 159.831 56.6414C159.714 56.8355 159.655 57.0989 159.655 57.4332V67.169L167.432 58.6472V57.4332C167.432 57.0812 167.34 56.7606 167.156 56.4698C166.971 56.1798 166.646 55.9994 166.177 55.9293V54.9796H166.428H172.674V55.9293C172.24 55.9994 171.939 56.1443 171.771 56.3643C171.604 56.5842 171.504 56.8267 171.47 57.0901C171.453 57.1432 171.445 57.2004 171.445 57.2616C171.445 57.3229 171.445 57.3801 171.445 57.4332V70.9945C171.445 71.0469 171.445 71.104 171.445 71.1661C171.445 71.2273 171.453 71.2845 171.47 71.3377C171.504 71.6011 171.604 71.8436 171.771 72.0627C171.939 72.2825 172.24 72.4284 172.674 72.4984V73.4482H172.424H166.177V72.4984C166.529 72.4453 166.787 72.3358 166.955 72.1682C167.122 72.0015 167.248 71.8299 167.331 71.6542C167.365 71.531 167.39 71.4126 167.406 71.2982C167.423 71.1838 167.432 71.0824 167.432 70.9945V61.0743L159.655 69.6226V70.9945C159.655 71.3465 159.748 71.6631 159.931 71.9442C160.115 72.2254 160.442 72.4107 160.909 72.4984V73.4482H160.659H154.412V72.4984C154.847 72.4284 155.148 72.2825 155.315 72.0627C155.482 71.8436 155.583 71.6011 155.616 71.3377C155.633 71.2845 155.641 71.2273 155.641 71.1661C155.641 71.104 155.641 71.0469 155.641 70.9945V57.4332C155.641 57.3801 155.641 57.3229 155.641 57.2616C155.641 57.2004 155.633 57.1432 155.616 57.0901C155.583 56.8267 155.482 56.5842 155.315 56.3643C155.148 56.1443 154.847 55.9994 154.412 55.9293V54.9796H154.663ZM190.586 54.9796V55.9293C190.117 56.0348 189.782 56.2064 189.581 56.444C189.381 56.6808 189.28 57.0112 189.28 57.4332V70.4935C189.28 70.5104 189.28 70.5241 189.28 70.5329C189.28 70.5418 189.28 70.5547 189.28 70.5724C189.28 70.5724 189.28 70.5765 189.28 70.5853C189.28 70.5941 189.28 70.6078 189.28 70.6247C189.28 70.9768 189.36 71.3022 189.519 71.6011C189.678 71.8999 190.251 72.0497 191.237 72.0497C191.254 72.0497 191.271 72.0497 191.288 72.0497C191.304 72.0497 191.329 72.0497 191.363 72.0497C191.581 72.0497 191.773 72.0804 191.94 72.1424C192.107 72.2036 192.199 72.4365 192.216 72.8416C192.199 73.105 192.141 73.3781 192.04 73.6593C191.94 73.9404 191.806 74.2312 191.639 74.53C191.388 75.04 191.074 75.5281 190.698 75.9945C190.322 76.4601 189.933 76.8516 189.532 77.1682C189.247 77.3792 188.975 77.5508 188.716 77.683C188.457 77.815 188.21 77.881 187.976 77.881L187.725 77.9068C187.541 77.8891 187.403 77.8456 187.311 77.7748C187.219 77.7046 187.156 77.6257 187.123 77.5379C187.106 77.4848 187.093 77.4364 187.085 77.3929C187.077 77.3486 187.073 77.3092 187.073 77.2737C187.073 77.1504 187.102 77.0272 187.161 76.9048C187.219 76.7815 187.282 76.6406 187.348 76.4827C187.365 76.465 187.378 76.4472 187.387 76.4295C187.394 76.4118 187.407 76.386 187.424 76.3505C187.525 76.1218 187.625 75.8752 187.725 75.6118C187.826 75.3477 187.875 75.0665 187.875 74.7676C187.875 74.6968 187.872 74.6178 187.863 74.53C187.855 74.4422 187.834 74.3544 187.8 74.2658C187.75 74.0548 187.642 73.8663 187.474 73.6987C187.307 73.532 187.047 73.4482 186.697 73.4482H179.146C178.627 73.4482 178.26 73.5183 178.042 73.6593C177.825 73.8002 177.716 74.0548 177.716 74.4245C177.716 74.7057 177.741 74.9038 177.791 75.0182C177.842 75.1326 177.909 75.2332 177.992 75.3211C177.992 75.3388 178 75.3525 178.017 75.3614C178.034 75.3702 178.051 75.3831 178.067 75.4008C178.151 75.5241 178.23 75.6948 178.306 75.9148C178.381 76.1347 178.418 76.535 178.418 77.1158C178.418 77.3615 178.373 77.5508 178.28 77.683C178.189 77.815 178.017 77.881 177.767 77.881L177.516 77.9068C177.415 77.8891 177.244 77.8368 177.002 77.749C176.759 77.6612 176.387 77.3792 175.885 76.9048C175.768 76.7992 175.643 76.6672 175.509 76.5084C175.375 76.3505 175.233 76.1741 175.082 75.9808C174.898 75.7351 174.718 75.4709 174.543 75.1898C174.368 74.9078 174.213 74.6267 174.079 74.3456C173.962 74.0813 173.866 73.822 173.79 73.5666C173.715 73.312 173.677 73.0704 173.677 72.8416C173.677 72.4896 173.766 72.2697 173.941 72.1819C174.116 72.094 174.346 72.0232 174.631 71.9708C174.664 71.9708 174.698 71.966 174.731 71.9572C174.764 71.9491 174.798 71.9442 174.832 71.9442C175.082 71.9088 175.312 71.8653 175.521 71.8121C175.73 71.7598 175.936 71.6542 176.136 71.4956C176.638 71.1089 177.211 70.1632 177.854 68.6592C178.498 67.1553 179.506 64.4334 180.877 60.4935C181.161 59.7024 181.366 59.104 181.492 58.6996C181.617 58.2952 181.68 57.9254 181.68 57.5911C181.68 57.1167 181.542 56.7163 181.266 56.3908C180.989 56.0654 180.308 55.9115 179.221 55.9293V54.9796H179.472H190.586ZM185.267 56.378C184.949 56.4304 184.619 56.6019 184.276 56.8919C183.934 57.1827 183.579 57.5742 183.21 58.0664C182.625 58.8752 182.052 59.878 181.492 61.0743C180.931 62.2705 180.433 63.5103 179.999 64.7943C179.581 65.9905 179.251 67.1553 179.008 68.2903C178.765 69.4245 178.644 70.3968 178.644 71.2055C178.644 71.5399 178.728 71.7638 178.895 71.8782C179.062 71.9926 179.329 72.0497 179.698 72.0497H185.267V56.378ZM199.089 54.9796V55.9293C198.671 55.9824 198.379 56.1137 198.212 56.3248C198.044 56.5359 197.944 56.7646 197.911 57.0112C197.877 57.1167 197.86 57.2222 197.86 57.3277C197.86 57.4332 197.86 57.5387 197.86 57.6442C197.86 57.6442 197.86 57.6483 197.86 57.6572C197.86 57.666 197.86 57.6709 197.86 57.6709V62.5251H200.093C202.032 62.5251 203.483 62.8239 204.445 63.4224C205.406 64.0201 206.08 64.671 206.465 65.3751C206.749 65.9196 206.921 66.4343 206.979 66.9184C207.037 67.4018 207.067 67.7578 207.067 67.9866C207.067 68.1276 207.062 68.2637 207.054 68.3958C207.046 68.528 207.033 68.6641 207.016 68.8042C206.833 69.9658 206.256 71.03 205.285 71.9974C204.316 72.9649 202.852 73.4482 200.895 73.4482H200.644H192.592V72.4984C193.06 72.4453 193.378 72.2786 193.545 71.9974C193.712 71.7154 193.804 71.4166 193.821 71.1C193.838 71.0469 193.846 70.9905 193.846 70.9284C193.846 70.8672 193.846 70.81 193.846 70.7569V57.6709C193.846 57.6709 193.846 57.666 193.846 57.6572C193.846 57.6483 193.846 57.6442 193.846 57.6442C193.846 57.5387 193.846 57.4332 193.846 57.3277C193.846 57.2222 193.829 57.1167 193.796 57.0112C193.763 56.7646 193.662 56.5359 193.495 56.3248C193.328 56.1137 193.035 55.9824 192.617 55.9293V54.9796H192.868H199.089ZM197.86 63.9235V72.0497H199.165C200.118 72.0497 200.949 71.7944 201.66 71.2845C202.371 70.7746 202.726 69.7193 202.726 68.1187C202.726 66.9225 202.476 65.9244 201.974 65.1238C201.472 64.3238 200.527 63.9235 199.14 63.9235H197.86ZM214.166 54.9796V55.9293C213.731 55.9994 213.43 56.1443 213.263 56.3643C213.095 56.5842 212.995 56.8267 212.962 57.0901C212.945 57.1432 212.937 57.2004 212.937 57.2616C212.937 57.3229 212.937 57.3801 212.937 57.4332V70.9945C212.937 71.0469 212.937 71.104 212.937 71.1661C212.937 71.2273 212.945 71.2845 212.962 71.3377C212.995 71.6011 213.095 71.8436 213.263 72.0627C213.43 72.2825 213.731 72.4284 214.166 72.4984V73.4482H213.915H207.669V72.4984C207.735 72.4984 207.815 72.4856 207.906 72.459C207.999 72.4324 208.087 72.3929 208.17 72.3398C208.354 72.2519 208.525 72.103 208.684 71.8918C208.843 71.6808 208.922 71.3812 208.922 70.9945V57.4332C208.922 57.0466 208.843 56.7469 208.684 56.5359C208.525 56.3248 208.354 56.1758 208.17 56.088C208.087 56.0348 207.999 55.9954 207.906 55.9688C207.815 55.9422 207.735 55.9293 207.669 55.9293V54.9796H207.919H214.166Z" fill="white"/>
<path fill-rule="evenodd" clip-rule="evenodd" d="M74.7859 72.774C74.7675 73.0052 74.801 72.884 74.8382 73.1913C74.7085 73.3663 74.7353 73.4747 74.4921 73.4731L73.5496 73.4134L73.5594 73.0901C73.5782 72.745 73.3974 72.9437 73.4074 72.5735L73.4178 72.3711C73.4501 71.7065 73.8179 71.9304 74.1659 71.4032C74.4381 71.5891 75.0104 71.6705 74.987 72.1652C74.96 72.5591 74.7859 72.6584 74.7859 72.774ZM74.9433 69.4976C75.5159 69.3801 76.2521 68.9629 76.7928 68.9918C77.5479 69.0334 78.1949 70.09 78.1542 71.0202L78.1355 71.3382C78.1056 71.981 77.2454 73.1913 76.7489 73.2057L77.2629 71.2676C76.32 70.592 77.1323 69.9329 75.1253 69.8009L74.9433 69.4976ZM45.5219 63.613C45.3968 65.7588 45.7799 66.1399 46.2579 67.5722C46.0454 67.6516 45.8643 67.7347 45.5602 67.7094L45.3022 67.6969C44.8714 67.6769 44.7814 66.1308 44.8019 65.6123L44.8409 64.7889C44.8781 64.0609 45.3407 62.9664 45.7394 62.699C45.8645 63.1073 45.5483 63.1289 45.5219 63.613ZM53.9665 59.0921L54.0355 58.9331L55.7433 58.9078C56.7568 58.8897 59.6757 60.5408 60.2989 61.0393C61.1183 61.6949 64.0271 62.4282 65.4849 62.5113L66.5207 62.6376L69.0137 62.4336C69.0798 62.8544 69.0221 62.9846 69.1337 63.5678C69.2606 64.1983 69.3973 64.124 69.5356 64.6984C69.683 65.3487 70.1945 66.2698 70.1524 67.1331L70.1393 67.5289C70.1222 67.9027 69.6032 69.5175 69.5795 69.8714L69.5765 70.0791C69.5358 71.0399 70.7351 71.078 70.7098 71.5946L70.6877 71.981C70.6477 72.7306 70.5475 72.1724 70.6017 73.2544C70.6477 73.9154 70.2941 73.6283 69.8027 73.892C69.6984 73.8232 69.6827 73.7763 69.475 73.7638L69.2992 73.7529L66.1115 73.9569L64.8093 73.8901L64.8449 73.4731C64.857 73.1261 65.2468 72.3677 65.2517 72.0641C65.3482 70.1569 64.7247 69.1471 63.424 68.7805C61.2569 68.1735 60.8243 69.828 59.8512 69.7505C59.5269 69.7377 58.0405 68.8022 57.7329 68.6052C57.0792 68.1898 56.0573 68.058 55.6907 67.4005C55.0814 66.297 55.3309 62.7081 54.7632 61.5287L54.7941 61.1114L53.9665 59.0921ZM22.4228 48.3578C24.5392 48.4898 25.4668 48.349 26.8165 49.7739C27.3131 50.3068 27.8198 50.8016 28.112 51.5006C28.3454 52.01 28.7134 53.2528 28.6797 54.0006C28.6799 54.0168 28.3773 54.6434 28.3452 55.319C27.6374 56.4425 27.5546 57.1178 26.5038 57.9957C26.0261 58.4112 24.3198 59.168 23.5004 59.1227L21.7912 59.0018C20.9143 58.9513 19.8533 58.012 19.4309 57.4358C19.1069 57.006 18.8972 56.7133 18.6505 56.2401C18.3348 55.6404 18.4006 55.319 18.1133 54.7555L18.1068 53.0142C18.1068 52.0968 18.9867 50.4476 19.4309 50.0395C19.7741 49.727 20.1523 49.3567 20.5105 49.0877C21.0376 48.7191 21.333 48.842 21.8077 48.5114L22.1425 48.5295L22.4228 48.3578ZM43.4338 61.2161C43.5198 61.0211 43.5789 61.0302 43.5872 60.799C43.6516 59.3847 43.7341 57.9632 43.8255 56.2039C43.9289 54.499 43.5635 53.3141 43.54 51.8475C44.2379 52.3099 44.4825 52.5229 45.5704 52.6097L45.8017 52.8374L47.267 53.0432C47.7733 53.0991 49.2225 52.4723 49.8036 52.364C50.1131 52.6006 50.6585 53.1263 51.0469 53.1516C51.2682 53.1607 51.1566 53.0991 51.4879 53.0847C51.3937 53.4189 49.437 54.5856 49.0131 54.9217C48.6093 55.2287 47.1482 56.7024 46.8694 57.1034C46.5556 57.602 46.2681 57.8549 45.9909 58.4437C45.6466 59.1462 45.8271 59.4316 45.1666 59.8399C44.1989 60.4161 43.7341 61.8376 43.1783 62.2277L43.4338 61.2161ZM74.7675 51.3706C74.7422 51.7536 75.8451 53.0377 76.0984 53.4386C76.6257 54.4213 76.5715 54.9108 76.5074 56.3123L76.3065 56.7133C75.8167 56.6446 75.4903 54.8258 74.943 54.7771C74.7353 54.7555 74.5037 54.8855 74.4921 55.1528L74.4853 55.2721C74.4737 55.3533 75.6491 57.4557 75.6086 58.4309L75.5666 59.3486C75.5647 59.5274 75.1407 61.1404 75.0461 61.406C74.8355 62.1066 74.5393 62.5438 74.5037 63.4974L74.3049 63.7972L74.2441 64.5938C74.1457 64.7815 74.0748 64.7743 74.0527 65.0054L74.0346 65.4227C74.0092 65.9609 74.1659 66.7124 74.1996 67.2724C74.2301 67.8087 74.7673 68.7551 74.2099 68.7226C74.0848 68.7208 73.8061 68.3903 73.6287 68.2729L73.1931 68.4625L73.1747 68.7551C73.1626 69.1074 73.6492 69.4017 74.0037 69.4307L73.9939 69.6347C73.23 69.8009 72.7302 70.6645 72.6844 71.8239L72.624 72.6169C72.5986 73.2254 73.041 73.3013 72.5071 73.4549C72.497 72.8968 72.1895 72.8372 72.2065 72.512L72.2374 71.7824C72.2571 71.5512 72.3264 71.5656 72.4191 71.3904L72.5712 70.3718C72.693 69.7505 71.9884 69.9004 72.0189 69.4107L72.019 69.2936C72.0749 68.5455 72.3482 68.3018 72.3652 67.6769L72.4398 66.1345C72.5547 64.2723 71.887 64.3535 72.0291 62.5148C72.1816 60.9 72.7758 59.8092 72.8246 58.7545C72.9043 57.5569 72.5712 56.4822 71.573 56.4243C71.2538 56.41 70.9918 57.1865 70.8956 57.5876C70.602 58.7163 70.823 58.0986 70.3246 58.9078L70.286 59.6231C69.8582 60.3131 70.3888 60.1053 69.6895 60.3456C69.5358 60.4161 68.9496 60.6997 68.8617 60.7844L67.919 60.6038C67.6054 60.5408 67.2586 60.77 67.0491 60.752C65.1354 60.6563 62.1757 58.3209 60.5626 57.5695C59.3563 56.9932 58.6923 56.484 57.2871 56.0198C56.4948 55.7544 56.2582 55.7669 55.3241 55.5845C54.2431 55.3586 54.2429 55.6188 53.2598 55.5989L51.5944 56.177C51.5639 56.8598 51.3933 56.7152 51.3763 56.8776C51.3698 57.1956 51.5081 57.1865 51.6634 57.2986L51.586 58.0245C52.4562 58.6676 53.253 59.168 53.6552 60.3509C53.8547 60.9578 54.5302 63.4974 54.2971 64.0465L54.4679 64.4944L54.6518 66.9654C54.9361 67.5757 54.716 67.9027 55.2952 68.3072C55.789 68.6342 56.0945 68.6451 56.5202 69.0278L56.5843 68.9269L59.0389 70.3989L60.3194 70.6138C60.2892 71.1467 60.042 71.4987 59.5978 71.4969C59.4411 70.8703 56.27 69.1328 55.3039 69.0659L54.9965 68.7336C53.9221 68.6757 54.1601 68.7805 53.7294 68.0399C53.4628 67.5145 53.2328 67.4385 53.0183 66.6799C52.7837 65.8057 52.2193 64.3717 51.5639 63.9416C50.4781 63.2481 49.8409 64.0068 48.8577 62.6666C48.4944 62.1824 48.2798 62.0162 48.0806 61.3481C48.0369 61.1601 47.6059 59.7621 47.6059 59.7368L47.6148 59.5274C47.647 58.9422 48.3744 57.3527 48.579 56.7386C48.941 55.6676 49.6263 55.5482 50.3509 54.9414C51.2415 54.1883 53.5183 52.9005 55.0336 53.0089L55.2922 52.8121C56.4783 52.8896 56.89 52.4904 57.9831 52.5644C58.9781 52.6459 59.9814 52.6963 60.9831 52.7487C62.8803 52.8824 64.9106 52.7072 66.4952 52.3532C67.8516 52.039 69.7486 50.9752 70.5475 50.0016C70.9613 49.4813 72.3264 49.8932 73.041 50.0828C73.8012 50.2959 75.1154 50.4548 75.7607 50.5126C76.0596 50.5236 75.9701 50.4351 76.3669 50.4476C76.3876 50.6066 77.3485 51.5909 77.2691 52.7596L77.2489 53.1751C77.2338 53.4965 77.1406 53.453 76.9077 53.4677C76.8135 52.9492 75.6289 51.0255 75.2167 50.9752C75.0379 50.9752 74.7673 51.2713 74.7675 51.3706ZM19.6241 60.7248C17.7083 60.593 16.5932 60.0782 15.6166 58.6982C14.9815 57.7844 14.2232 55.2793 14.4629 53.7079C14.7284 52.0082 14.4494 52.2068 14.9478 50.612C15.1643 49.8932 15.6573 48.9306 16.0525 48.4898C16.3584 48.161 16.4072 47.8811 16.7604 47.5451C17.1048 47.1965 17.1574 47.3139 17.5206 46.8479C17.5984 46.7882 19.4056 45.7878 19.4479 45.7968L19.6185 45.804C19.8533 45.8203 21.1963 46.3369 21.4057 46.4324C21.6004 46.5428 22.9261 47.1405 23.0833 47.1531L23.0714 47.3664C21.4602 47.2598 19.9091 48.255 19.0342 49.1798C18.2858 49.9926 17.0391 52.1075 17.365 53.8253C17.6068 55.1238 17.4682 55.3046 17.865 56.4984C18.0092 56.9444 18.7926 57.974 19.0983 58.3587C20.0431 59.5616 21.6406 59.912 23.2757 60.0332C23.0021 60.4883 21.4294 60.8369 20.7367 60.7844L19.6241 60.7248ZM64.5726 50.0016C65.357 50.0539 65.9461 49.5771 67.002 49.6384L67.276 49.6602C67.1219 50.2056 64.8565 51.2894 64.2044 51.4916C62.9633 51.871 61.5691 51.9738 60.2601 51.8782L59.9007 51.9232L59.8816 51.7808L61.4396 51.0745C62.0374 51.0745 62.6606 50.8215 63.0914 50.6516C63.3668 50.5236 64.3869 50.1425 64.5726 50.0016ZM30.0211 44.8214L30.3505 44.8467C30.3745 44.8504 31.7744 45.2477 31.9299 45.3018C32.3239 45.4427 33.3302 45.5167 33.7677 45.5729C35.3457 45.7878 34.5244 47.0015 35.5194 47.9008C36.9096 49.149 36.5212 48.3868 37.3082 50.3593C37.6579 51.2551 37.9587 52.8374 37.9045 54.1739L37.7694 56.6339C37.6939 58.2216 36.4772 61.3788 35.8979 62.4461C35.1821 63.7394 33.8166 65.8454 32.7912 66.6365C32.4471 66.9363 32.2913 67.229 31.8976 67.5054C31.516 67.7943 31.2153 67.9118 30.8503 68.1735C29.8909 68.8472 29.6459 68.8944 28.5547 69.2899C28.1376 69.4542 28.0883 69.6619 27.4061 69.8246C27.1055 69.884 26.4195 70.09 26.1153 70.1785C25.8555 70.2868 23.5241 70.6245 23.2571 70.6138L23.0835 70.6082C22.8215 70.592 22.7369 70.4946 22.5865 70.3718C21.1847 70.6645 19.0425 69.4813 18.4767 69.6113C18.3569 69.362 17.2249 68.9178 16.9615 68.7967C16.3129 68.5511 15.9377 68.2657 15.4495 67.8774C14.3532 66.9923 13.8801 66.4994 13.0002 65.439C11.8281 64.0628 10.4054 60.799 10.0574 58.4906C9.76006 56.4425 9.8649 56.1192 9.97806 53.8253C10.0576 52.0334 10.6283 50.8593 11.0542 49.5771C11.3801 48.6523 12.3295 46.9275 12.8851 46.3404C13.2217 45.9809 15.0829 43.9706 15.4072 43.9905C16.0222 44.0302 16.056 44.3607 16.7485 44.4457L18.1931 45.0888C18.1558 45.488 17.1574 46.1129 16.8431 46.2482C16.6404 46.3784 15.7199 47.3048 15.529 47.5597C15.3451 47.8052 14.7011 48.9034 14.5677 49.232C14.3685 49.6277 14.2181 49.6946 14.1334 50.1931C14.0174 50.7512 14.186 50.5361 13.8262 51.1052C13.8094 51.6236 13.6757 51.956 13.6183 52.4598C13.5797 52.7434 13.6404 53.5021 13.6301 53.7404C13.612 54.6434 13.865 55.2287 13.821 56.3376C14.345 57.3998 14.3598 58.1619 15.0729 59.3702C15.6492 60.324 16.1673 61.1005 16.9733 61.8123C18.4921 63.1814 20.3602 64.1583 22.9954 64.3408L23.2504 64.144C24.5392 64.229 26.0884 64.0194 26.916 63.4631C27.7117 62.9464 29.1477 62.3811 29.6949 61.6028C30.031 61.1276 30.396 61.0211 30.8198 60.3509C31.1397 59.8346 31.477 59.3142 31.7811 58.8176C32.2123 58.2125 32.972 55.8915 33.0446 54.7771C33.1229 53.0882 32.9365 50.2453 32.249 49.1436C31.8638 48.5205 31.69 47.5994 31.232 46.9275C30.9367 46.5012 29.9974 45.3489 30.0211 44.8214ZM70.213 44.2958C71.0311 44.3607 71.6355 43.781 72.1067 43.3006C72.6442 42.7009 73.1186 42.5492 73.9395 42.3848L74.4179 42.7153L74.649 42.4554L77.202 42.58C77.2189 42.58 77.8975 42.8942 78.0361 42.9286L78.023 43.2572C77.2204 43.2175 76.3755 43.6382 75.6914 43.5155L74.4077 43.3006C74.2441 43.2048 74.2521 43.1038 74.0748 43.0982L73.6292 43.0766C73.2877 43.055 73.5594 43.3206 73.0122 43.3403C72.955 43.9075 72.7418 43.8606 72.7216 44.3607C72.7102 44.5956 72.8246 44.7799 73.024 44.7889L73.1189 44.798C73.4179 44.8124 73.2605 44.5956 73.5594 44.6137C73.9165 44.6353 74.0966 44.8576 74.7522 44.8882C75.3115 44.9154 75.5461 45.0147 75.9599 45.0725C76.8219 45.2259 77.4498 44.8592 78.2015 44.8992C78.3976 44.9045 78.4448 45.3596 78.5191 45.5385L77.2578 46.0208C76.2188 46.0136 75.5343 46.2482 74.5611 45.9755C74.1659 45.8581 73.5985 45.8112 73.23 45.7372C72.5191 45.5619 72.7165 45.7878 72.0323 45.7497L71.3414 46.9129C71.6358 47.5035 74.7978 47.8721 75.4566 47.8089L75.4668 47.9317L77.7978 47.7259C77.8975 47.8449 77.9668 47.8449 77.9533 48.0707V48.1953C77.9096 49.0877 74.1136 48.5892 73.5257 48.4393C72.9127 48.2785 71.7115 48.1412 71.3263 47.8611C71.0615 47.6915 70.7249 47.5451 70.4108 47.3664C70.0582 47.1693 69.8887 46.7324 69.6675 46.7198L69.5681 46.7124C68.9514 46.6836 68.5069 46.96 67.6742 47.0322C66.8941 47.0774 66.5898 47.2598 65.6775 47.1893C64.2585 47.099 62.8733 47.4548 61.6249 47.3464C60.4408 47.2598 58.8664 47.8089 58.0201 48.1412C56.8902 48.5439 55.8056 49.0768 54.8004 49.3856C54.0706 49.6221 53.4727 49.9454 54.1653 48.757C54.5149 48.1429 54.5774 47.6915 55.0977 47.3048C55.8056 46.8226 57.1604 45.7047 57.9475 45.5385C59.1963 45.2693 60.0439 44.8124 61.5643 44.7799C62.9412 44.7239 64.3514 44.8504 65.7061 44.9261C65.9277 44.9389 65.9275 45.0128 66.1235 45.0706L66.3805 44.8592C67.4936 44.9389 69.5407 44.7799 70.213 44.2958ZM54.7383 43.3006C54.7787 42.8309 55.2718 41.6948 55.4373 41.1404C55.6808 40.2734 55.412 39.41 56.0134 38.9784L56.154 39.392L56.1203 39.9969C56.3951 40.5479 56.3258 41.0664 56.2835 41.8791C56.1152 45.0816 54.8308 47.4114 53.2598 49.1002C52.422 50.0123 51.6264 50.576 50.569 51.1845C49.8511 51.6127 49.584 51.405 48.8847 51.797C48.6485 51.956 47.2732 52.0587 46.8796 51.9738L46.0454 51.7445V51.5965L46.4863 51.4356C48.5793 51.5549 50.4288 49.812 51.6095 48.6523C52.422 47.8305 54.5909 43.4361 54.7383 43.3006ZM76.4062 38.0138C76.9448 37.9633 77.1896 39.4444 77.161 40.1127C77.2457 40.313 77.3282 40.313 77.3147 40.5445L77.2489 41.4584C77.2254 41.9441 76.1947 41.6948 75.9599 41.684L74.7524 41.5937C74.7015 41.1367 74.4328 39.2276 74.4597 38.8122L74.4902 38.507C74.5004 38.2703 74.5611 38.2884 74.6811 38.162L76.4062 38.0138ZM36.0852 47.48C37.4928 47.5597 37.7018 47.5685 38.9976 47.4295C40.0788 47.3139 40.6344 46.9201 41.5771 46.7108C42.39 46.5428 44.9606 44.5487 45.7292 43.9291C45.9438 43.7539 47.2867 42.3073 47.4253 42.0471C47.628 41.7148 47.9792 41.3734 48.2429 41.0699C48.5419 40.7612 48.6804 40.3167 48.9303 39.896C49.6314 38.6767 50.8458 36.1879 51.0671 34.4285C51.2092 34.4394 52.2936 34.8801 52.3967 34.9795C52.6198 35.1818 52.2834 36.2132 52.167 36.439C51.8076 37.0981 51.9421 37.4432 51.6585 37.9652C51.444 38.3824 51.2868 38.8322 51.0739 39.2729C50.8951 39.6412 50.7005 40.2734 50.4962 40.6797C50.3056 41.0755 50.0064 41.415 49.7799 41.8014C49.2109 42.7786 48.9912 43.1797 48.3744 44.0827C48.1757 44.3682 46.8374 45.8112 46.6077 45.999C46.0028 46.4849 45.1245 47.0231 44.638 47.5235C43.8395 48.3921 40.9859 49.0352 39.3742 48.9069H39.2952C39.0146 48.8906 37.3015 48.5655 37.1074 48.4246C36.6887 48.161 35.5768 47.6101 35.506 47.1278L36.0852 47.48ZM30.9532 36.652C31.5986 36.6845 33.9265 35.3696 34.2727 34.9579C34.8676 34.2298 34.9857 34.6237 35.5803 33.6573C35.8423 33.2474 37.016 33.4171 37.3997 33.6719C37.1836 34.4485 36.864 34.584 36.4467 35.0247C36.221 35.254 36.2138 35.4382 35.945 35.6585C35.6919 35.859 35.4518 35.859 35.2237 36.0108C34.5128 36.6033 34.8709 36.439 33.9265 36.8994C33.5095 37.1127 33.065 37.6382 32.7119 37.7827C32.4438 37.9361 29.8604 38.6913 29.5496 38.731C28.9706 38.7688 28.0767 38.8194 27.6543 38.8122C27.254 38.8122 27.0715 38.7688 26.6728 38.8122C26.1765 38.8862 26.2927 38.657 25.9363 38.5954L24.4148 38.3643C23.742 37.8134 23.1154 37.8351 22.3128 37.035C21.8689 36.5889 20.9785 35.7922 20.948 34.9922C21.582 35.0859 22.3128 37.3292 24.6238 37.49C24.7556 37.6238 24.7556 37.6943 24.943 37.7087L25.6409 37.7556L26.5782 37.7774L26.6728 37.8314C27.0261 37.8548 28.6425 37.49 29.0326 37.4666C29.79 37.4035 30.4163 37.0384 30.9532 36.652ZM43.6854 33.755C46.2681 33.9193 46.0131 32.9601 44.9335 35.7362C44.738 36.2132 43.2883 38.8394 43.0281 39.1192C41.9186 40.3927 39.1664 43.4486 37.2457 43.324L36.9572 43.7051C36.6652 43.7051 35.4417 44.117 34.8927 44.2145C34.3071 44.3192 33.288 44.3969 32.6189 44.3807L32.3792 44.1368C30.3235 44.0193 27.5427 42.6178 27.4988 40.1397L27.6729 40.1487C27.7287 40.577 28.6391 42.0399 28.8975 42.2314C29.6224 42.7786 30.2624 42.8798 31.0665 42.9267C32.6849 43.037 33.3623 43.1941 35.0008 42.6378C35.3457 42.5222 35.7119 42.5438 35.9739 42.401C36.2801 42.242 36.4349 42.1031 36.7643 41.926C37.3087 41.666 37.9045 41.3662 38.4873 41.2469C38.5703 40.4324 39.3759 40.3367 39.9012 39.5238C40.1651 39.1011 40.4451 39.1408 40.7358 38.7797C41.0098 38.3949 41.0956 38.3137 41.3676 37.8783C41.78 37.1993 42.2106 36.6376 42.5753 35.888C42.9117 35.2233 43.3355 34.34 43.6854 33.755ZM65.9579 29.8392C66.215 29.1273 68.2164 29.5662 68.8447 29.2844C69.421 29.039 70.0982 27.5054 70.7403 27.5706C71.6962 27.6194 72.497 28.181 72.9513 28.2281L73.6203 28.2678C74.0378 28.2893 74.3077 27.8848 74.5951 27.912C75.0481 27.9336 75.3992 29.0786 75.5156 29.6583C75.8167 31.2804 75.5798 30.5869 75.5173 31.8854C75.5089 31.9938 75.6693 32.1836 75.8281 32.1998C76.0629 32.2124 76.0814 32.1727 76.2656 32.1365L76.3485 30.7928C76.3758 30.1877 77.4533 30.903 77.4263 31.3943L77.4114 31.8042C77.3942 32.0353 77.1896 32.5213 77.1153 32.7109C77.2254 32.8789 77.2015 33.0107 77.428 33.0235C77.9247 33.0614 78.7321 32.3008 79.0259 32.3117C79.241 32.3226 80.1508 33.3052 80.3301 33.5364C80.6548 33.9861 80.7201 34.9651 80.749 35.711C80.7796 36.6051 80.2015 37.0131 79.6812 37.2536C79.5362 37.3276 78.0665 37.9055 78.0361 37.902C77.8233 37.8839 77.2961 37.3438 76.5327 37.286C75.9062 37.2283 75.3687 37.322 74.6236 37.2624H74.4484C74.2136 37.2517 74.046 36.8922 73.9699 36.7314C74.6053 35.7996 75.7555 35.6441 75.8451 33.6482L75.8776 33.1497C75.8978 32.8915 75.8281 32.8283 75.6289 32.8049C75.0005 32.7724 75.0377 34.9416 72.6963 34.7899L72.2571 34.7608C71.9112 34.7446 71.1473 34.2876 70.561 34.2317L69.6088 34.1829C69.683 33.047 69.9478 32.1365 69.5273 31.3815C69.1881 30.7747 68.5711 30.1984 67.7587 30.1462L67.5241 29.9095C66.5628 29.8717 65.8565 29.9456 65.2654 30.4098C64.6622 30.8849 64.3514 32.5104 64.2788 32.5104C64.0763 32.4979 63.74 32.1599 63.5997 32.0462L63.7857 30.4098L65.9579 29.8392ZM11.5793 28.0185C10.6593 26.7722 10.1436 25.2458 10.9442 23.344C11.2671 22.5619 13.0744 20.4017 13.8547 20.4523C14.2129 20.4632 14.9731 21.4368 15.2012 21.7454C15.5139 22.1592 15.6573 23.1941 15.7603 23.8552L16.0107 23.8715C16.4765 23.8984 16.5746 24.7926 16.5323 25.4429C16.9482 26.2737 16.6185 26.5464 17.1574 27.3086C17.3587 27.6156 17.9157 28.5133 18.1133 28.7012C18.5224 29.0876 18.8703 29.5159 19.3196 29.9438C19.3959 30.0016 20.6997 30.6122 20.899 30.6953C21.9316 31.0907 23.438 31.4612 24.7303 31.2732C25.467 31.1866 26.0563 31.201 26.693 31.0473C27.0396 30.9752 28.2455 30.4027 28.2624 30.4098H28.3387C28.7543 30.446 29.5766 31.1954 30.031 31.3616C29.9485 31.8981 28.5142 32.1365 28.0444 32.1998C27.298 32.3389 26.4329 32.4166 25.6576 32.3985C24.8179 32.3858 24.4211 32.579 23.3601 32.317C22.8366 32.1799 21.791 32.1437 21.0273 32.0047C20.0494 31.8295 18.0763 30.3214 17.551 29.6061C16.9615 28.8022 15.7824 26.7089 15.8379 25.3074C15.5457 25.3868 15.485 25.6288 15.463 26.1038L15.4211 26.9275C15.3635 28.0851 16.8735 30.2058 17.4682 30.8289C17.7083 31.0764 18.7385 32.0915 18.9867 32.252C19.7892 32.7867 20.1321 32.3336 20.0494 34.1052L19.7994 34.098C19.6845 34.089 18.3093 33.2727 18.2756 33.2727L18.0276 33.2491C17.9229 32.9404 17.4362 32.9476 17.1017 32.6965C16.7996 32.4344 16.5913 32.317 16.2266 32.0915C15.6352 31.7104 15.0491 31.2732 14.5356 30.8668C13.9852 30.4785 13.4207 30.0722 12.9004 29.6061C12.1371 28.909 12.164 28.7844 11.5793 28.0185ZM4.42232 26.1201C4.22794 26.1038 4.23635 26.037 4.10293 25.8871C3.08447 25.8346 1.50811 24.6932 1.54013 23.577C1.8749 23.7847 2.07907 23.9942 2.35965 24.146C2.80895 24.4403 2.86965 24.2723 3.34437 24.4694C3.76679 24.6374 4.73802 25.1972 4.71596 25.71L4.69269 26.1291L4.42232 26.1201ZM70.6089 24.6806C71.2912 23.6438 70.9058 22.6487 72.3822 22.3145C73.0414 22.7877 72.7992 23.8587 73.4379 24.4874C73.9553 24.9785 74.3516 25.6722 74.9752 26.1526C75.9503 26.9113 77.47 28.3128 77.4193 30.0541L76.2526 29.3966C76.1293 28.6307 75.5224 27.1514 74.7353 27.099L74.46 27.0665C74.2301 27.0593 73.8467 27.5559 73.4057 27.5128L73.3283 27.5054C72.7267 27.4801 72.0509 26.7198 71.632 26.7035L71.4772 26.6982L69.9159 26.8047L70.6089 24.6806ZM43.0486 32.7993C42.4389 32.579 40.5045 32.7362 39.7052 32.6965C38.5164 32.6134 37.3675 32.7146 36.2542 32.3677C35.5261 32.1437 35.734 32.3767 34.8622 31.9234C34.8503 31.9181 33.3419 31.5586 33.2135 31.5189C32.7593 31.4121 32.1207 31.0185 31.7709 30.9462C30.7291 30.735 31.1492 30.7874 30.3502 30.4027C30.1091 30.2852 29.3132 29.8101 29.0733 29.6477C28.7543 29.4328 28.1881 28.8691 27.9398 28.7192C26.886 28.0185 26.5782 27.8324 25.845 26.7829C25.5546 26.3893 25.1999 26.0045 24.9497 25.6053C24.7119 25.179 24.5325 24.5487 24.2672 24.2941C23.8216 23.8587 23.1407 22.2639 23.0359 21.4368C23.4719 21.8413 24.3298 23.2356 24.7894 23.8515C25.092 24.2579 25.3433 24.6715 25.6913 24.9966C25.8301 25.1303 26.5157 25.9358 26.6459 26.1201C27.254 26.9347 27.96 27.6012 28.9145 27.9551C29.7119 28.2784 30.6678 29.0967 31.5142 29.4653C33.4637 30.3214 35.6917 30.7115 37.8759 30.5688C39.104 30.5019 39.9807 30.4405 41.0433 30.2165C41.7645 30.0722 43.5789 29.8192 44.3288 29.8914L46.03 30.0974L47.5876 30.101H47.6687C48.2798 30.1462 48.1415 30.3664 48.9556 30.4027C49.2178 30.4098 49.8409 30.7765 50.1078 30.903C50.6385 31.136 50.8458 31.2641 51.3003 31.4809C51.7785 31.7104 51.8257 31.9034 52.2751 32.1799C53.1656 32.7037 55.3241 34.7936 55.4762 35.859C55.1349 35.7831 54.7497 35.2449 54.5758 34.9795C54.3949 34.7158 53.8157 34.4122 53.4862 34.2914C52.7144 33.9536 52.0182 33.5073 51.1111 33.2347C50.4725 33.0161 50.3865 33.0161 49.8121 32.7724C49.1721 32.4979 49.2106 32.6747 48.4116 32.6134C47.3881 32.5538 46.4303 32.7109 45.5602 32.6368H45.4628L43.0486 32.7993ZM59.7128 28.9233C59.8194 26.9996 60.7313 25.253 61.5643 24.276C62.2368 23.4904 64.1537 22.2873 65.5576 22.5962L66.4041 22.7823C66.9345 23.2303 67.6101 23.3765 67.9039 24.0883C67.3079 24.4206 66.5 25.0653 66.1673 25.71C65.6439 26.7722 66.1183 27.8377 66.3733 28.5224C66.2708 28.591 64.7467 29.2413 64.5726 29.2844C63.4577 29.6061 63.5238 28.7606 62.8345 28.712L62.4936 28.6939C62.0882 28.6579 61.5691 29.6583 61.5389 30.2762C61.4954 31.0998 62.5 31.4031 62.9307 31.6868C62.8803 32.7993 63.4731 33.3883 64.3109 33.428C64.9445 33.4695 65.1234 32.7362 65.1589 31.9359C65.3012 31.7229 65.8278 31.0473 66.0795 31.0708L66.9345 31.136C67.3453 31.1576 68.3415 32.0915 68.3212 32.5556L68.3198 32.7542C68.2738 33.7748 67.4141 34.6453 66.5728 34.6002L65.5425 34.5424C65.2924 34.5224 64.2044 33.6285 64.0524 33.6285C63.8618 33.6139 63.924 33.6482 63.696 33.6898C63.5491 34.2698 63.6369 34.9651 63.3666 35.3318C63.264 35.487 62.6975 36.3287 62.6975 36.4081L62.691 36.5202C62.6708 36.8454 63.5135 38.2016 64.0693 38.2397C65.3482 38.33 65.9528 38.171 66.8667 37.714C67.2826 37.5116 68.8837 36.8072 69.0728 36.5202C69.7097 36.5546 69.642 36.3397 70.0205 36.3613L70.1877 36.3722C70.6712 36.3956 71.1473 39.6683 71.1017 40.5517L71.0901 40.8477C70.9614 43.2428 70.5831 43.5914 68.8617 43.781C67.4936 43.949 66.186 44.0193 64.8818 44.0521L64.3635 44.0121L64.034 44.0031L60.0625 43.9905C60.1183 43.4614 60.3192 43.1797 60.4814 42.7643C60.659 42.338 60.6842 41.9838 60.8327 41.4728C60.9294 41.1008 60.8615 39.1952 60.8615 38.552C60.8564 38.2469 60.4578 36.7604 60.3682 36.074C60.2522 35.012 59.8615 34.5749 59.9003 33.5526L59.735 33.2474C59.8112 32.2864 59.5439 32.252 59.5978 31.3887L59.7128 28.9233ZM21.1677 25.9358C20.8165 25.6397 20.6152 25.6469 20.0561 25.58C19.7067 25.5098 19.4665 25.2458 19.0695 25.0671C18.8588 24.986 17.5071 24.0267 17.3143 23.8353C16.4005 22.8924 15.0729 21.8522 14.8144 20.297C15.0729 20.3439 15.6489 21.1676 15.9276 21.4368C16.3701 21.8774 16.6016 22.1068 17.0762 22.5403C17.4329 22.8745 17.958 23.2574 18.4107 23.4542C18.9212 23.6638 19.6844 23.7738 20.0561 24.0286L21.181 24.0755L22.1106 24.0286L23.6254 26.1435L22.8759 26.1526L21.1677 25.9358ZM79.3876 25.338C79.6648 25.9052 80.6037 26.8697 80.5649 27.6662L80.533 28.3778C80.5158 28.6182 80.4414 28.6182 80.3301 28.7844L80.2931 29.3007C79.8133 29.6477 79.9667 30.3448 79.3874 30.372L79.5734 28.8366L79.5906 28.2296C79.6515 26.7504 78.9939 25.9504 78.2083 25.3327C77.8473 25.0184 77.3365 24.6806 77.0495 24.3248C76.867 24.0883 76.6678 23.8806 76.9751 23.7685C77.1055 23.7016 77.6576 23.4758 77.6611 23.4758H77.7541C77.7978 23.4758 79.3367 25.2099 79.3876 25.338ZM50.8582 21.7798L50.8442 22.0724C50.8342 22.1267 49.6939 24.4946 49.5926 24.6734C49.3308 24.4441 48.5518 23.2303 48.579 22.748L48.5793 22.6649C48.6079 22.143 49.1904 22.1899 49.6314 22.2188L49.9101 22.0868L50.8582 21.7798ZM9.45269 23.7738C9.4611 23.6438 9.98991 22.4591 10.0776 22.302C10.3907 21.8341 10.5828 21.8774 10.9374 21.2216C11.186 20.7703 12.5659 19.6811 13.0406 19.5709C12.9697 20.1958 12.3616 20.3439 11.9257 20.6925C11.215 21.2434 11.4071 21.2181 10.8682 21.8269C10.3651 22.4029 9.71284 24.0883 9.64003 25.2099C9.6317 25.421 9.97806 26.7884 10.0625 26.9943C10.5069 27.9208 10.3261 27.6012 10.8801 28.349C11.1402 28.6885 11.6775 29.2844 11.8513 29.5609C12.3618 30.3448 12.4088 30.0541 12.9358 30.6375C13.7434 31.6273 17.5863 33.8362 17.8076 34.2876L19.9789 35.1097C20.3451 35.7237 20.6997 36.2565 21.0273 36.959C21.247 37.4304 22.0832 37.902 22.5409 38.2253C23.1037 38.6136 23.6491 39.1336 24.4464 39.2276C25.7622 39.356 25.8789 39.7604 26.5612 39.8814L27.6241 42.2511C27.0613 42.242 26.6728 41.807 26.362 41.5214C26.2374 41.3734 25.4989 41.0176 25.1999 40.7612C24.4655 40.1487 23.4294 39.896 22.8062 39.3198L22.4603 39.2926C21.9063 38.8122 20.0494 38.4474 19.7824 37.902C18.164 37.7827 13.9544 34.6562 13.066 33.6014C12.1233 32.402 11.3564 31.9359 10.5844 30.5272C10.0253 29.5084 9.24328 27.8792 9.3379 26.2338L9.45269 23.7738ZM26.893 20.0497C27.5364 20.0822 28.0665 20.5263 28.8671 20.0497C29.3762 19.7389 29.9162 19.4084 30.3739 18.993C31.0549 18.4148 32.3994 16.9284 32.5448 15.7778L32.7237 15.7833L32.6647 17.0043C32.6464 17.4413 31.2573 19.2132 31.1781 20.6312L31.1595 20.9417C31.0414 23.3946 31.3959 24.0142 31.7557 25.71C31.9978 26.9456 33.3302 28.8512 33.3926 29.2844C32.7124 29.6277 31.69 28.145 31.1492 27.7058C30.8033 27.4313 30.5869 27.1514 30.1222 26.7829C29.8825 26.5771 29.2404 26.1038 29.0377 25.9052C28.7643 25.6722 28.2455 25.04 28.0107 24.8829C27.4653 24.4694 27.3553 24.6065 27.0141 23.8984C26.6072 23.0604 26.3739 21.731 26.4482 20.4307C26.4583 20.2121 26.4803 20.2862 26.5477 20.0259L26.893 20.0497ZM41.4204 19.2079C41.449 18.6335 42.1496 16.7839 42.5079 16.8254C42.8342 16.8525 44.1447 18.3462 45.1717 18.4439L46.8799 18.5323C47.3514 18.5576 48.5518 17.8352 48.9152 17.6312C48.8631 18.5467 48.5419 18.5198 48.503 18.8575C48.4696 19.5402 49.0975 19.1445 49.226 20.0259L46.7142 20.4161C46.3575 20.6401 45.9268 20.6996 45.8796 21.3518L45.8493 21.8538C45.7885 23.25 46.67 24.8288 47.1989 25.6775C47.3646 25.9504 47.552 26.261 47.6768 26.5083C47.9391 26.9744 47.9911 26.7722 48.2798 27.137C48.905 27.9045 48.579 28.0185 48.4944 29.0227L48.9828 29.8082L48.8852 29.8717C48.059 29.5952 47.3441 28.7428 46.67 28.1594C46.2885 27.8504 45.8693 27.6933 45.5553 27.3285C45.334 27.0593 44.8019 26.4724 44.5822 26.3259C43.63 25.7084 41.572 23.0388 41.6496 21.3915L41.4204 21.155L41.3676 20.0422L41.4204 19.2079ZM58.1284 19.5618C58.6321 19.589 59.6757 18.4836 60.1334 18.2018C60.7687 17.8045 61.5457 17.3782 62.2567 17.0874C63.2115 16.7063 63.6944 16.6088 64.8347 16.4624C65.4274 16.4012 67.0491 16.2204 67.605 16.2529L68.1271 16.2854C68.0846 16.9772 67.9376 16.6052 67.9209 16.988L67.8435 18.5323C67.7489 20.1958 68.5932 20.0568 67.9748 22.5528C67.3313 22.5041 67.0626 21.8774 66.12 21.816L64.3111 21.6877C64.1893 21.6877 62.6975 22.3145 62.6469 22.3145L62.3756 22.302C62.2856 22.6902 61.6047 22.9267 61.2972 23.1416C60.9566 23.3711 60.7027 23.8587 60.4578 24.2273C60.0321 24.8288 59.38 26.0208 59.2264 26.9347C58.9139 28.5548 58.8463 28.6723 58.7921 30.2996C58.7165 31.9234 58.9239 32.6134 59.0371 33.9137C59.1436 35.4129 60.4273 38.8934 59.9458 40.5245C59.5592 41.787 59.7466 42.3236 59.0911 43.5461C58.74 44.2217 58.8344 44.2217 58.1807 44.5C57.9424 44.6084 57.0995 45.0128 56.9035 45.0001C56.5913 44.9695 57.2024 43.7954 57.297 43.324C57.4677 42.5997 57.4677 41.7817 57.6248 41.126C57.5135 40.9021 57.3817 40.8477 57.3968 40.6004C57.4307 39.8814 57.6823 39.0686 57.4305 38.6136C57.0374 37.9524 57.1316 37.7684 56.9035 37.0384C56.7906 36.6592 55.743 34.6274 55.5234 34.34C55.1368 33.8253 53.6873 32.7327 53.6873 32.0427C53.684 30.4027 53.8157 29.6061 53.8833 28.2496C53.8833 28.2134 54.503 25.7353 54.5774 25.5548C54.7197 25.1231 54.7936 24.5921 55.0165 24.2723C55.3309 23.8028 55.3427 23.8984 55.5878 23.2574C55.9966 22.0868 57.9594 20.1327 58.1284 19.5618ZM5.29404 16.2006C5.32409 15.545 4.96254 14.7267 5.05553 13.9321C5.12859 13.3486 5.49469 12.4634 5.83272 12.2214C5.93455 12.4925 5.92734 12.1546 5.91034 12.525C5.89711 12.926 5.6367 12.7436 5.7381 13.3846C5.8025 13.903 5.80224 13.7894 5.81065 14.3925C5.81083 15.0175 6.08772 15.4347 6.17049 16.0307C6.25884 16.5583 7.15194 18.5703 7.65198 18.6226C8.17417 18.6444 8.34288 17.3926 8.77363 17.2354C8.73835 17.9326 8.58097 18.2631 8.68743 18.8791C8.74504 19.197 8.98476 19.757 9.03894 20.1327C10.1439 19.9013 9.81931 18.7275 10.8262 18.0284C11.1776 17.7864 12.8328 16.4156 12.9562 16.3831L13.2621 18.76L12.6898 18.3462L12.5966 19.132C11.1992 19.0362 9.42899 21.4621 8.50009 22.253C7.77218 22.833 6.32091 26.2176 6.22956 27.7927L5.10318 26.2828C5.31079 26.1526 5.45074 26.1923 5.47958 25.8762L5.49985 25.571C5.52028 25.1936 4.91378 24.3248 4.56897 24.1314C4.09108 23.8515 3.50827 23.6438 2.95594 23.4127C2.13642 23.0497 1.21078 21.4693 1.27681 20.3529L1.30746 19.8382C1.33742 19.2422 1.40508 18.6823 1.72104 18.4439L1.97973 19.5618C2.41383 20.5822 2.34781 21.1892 3.29208 21.9081C3.70446 22.2351 4.90004 23.3765 5.42051 23.4074L5.94588 23.438C6.0101 23.1544 6.03028 23.2574 6.04376 23.0279C6.08798 22.5331 5.1316 22.3507 4.77168 22.1592C4.52183 22.0219 3.92717 21.4384 3.67381 21.2072C2.75323 20.4307 2.83754 19.1501 2.41357 18.274L2.55764 15.5141L2.95268 14.8639L3.03382 14.9272L2.86802 16.1372C2.78362 16.7351 3.43057 19.3703 3.91369 19.3975C4.17728 19.4191 4.16354 19.2276 4.28864 19.0002C4.17728 18.7275 3.61963 16.5492 3.62985 16.2962L3.68608 15.5847C3.71794 14.9706 3.96083 14.0945 4.43554 14.0764L4.29722 14.9994C4.21283 15.5213 5.40197 18.359 5.94914 18.4114C5.99989 18.4114 6.2026 18.1965 6.31069 18.1078L5.29404 16.2006ZM71.8922 15.2974C72.242 15.1187 73.698 15.0915 74.2133 15.1277C74.9905 15.1784 75.5089 15.9423 76.1661 15.9839C76.2742 15.9857 76.3451 15.8483 76.3534 15.6712C76.3669 15.3967 76.1947 15.3373 76.2117 15.0627C76.2188 14.8079 76.406 14.2426 76.6761 14.2588C77.2457 14.2879 78.3351 15.5828 78.5731 16.0307C78.9483 16.7063 79.2456 17.902 79.1966 19.0543C79.0987 20.9058 77.4853 23.0423 75.8922 22.9575C73.8976 22.813 71.7519 19.8345 70.5004 22.8473C70.3553 23.1544 70.2637 23.3765 70.1135 23.6438C69.8887 24.0683 70.0238 24.1117 69.8887 24.5543C69.7776 24.8666 69.3701 25.8565 69.2215 26.0913C68.933 26.5771 67.6826 28.1413 67.1707 28.1557C67.0896 27.5706 66.6927 27.4313 66.7265 26.7035C66.7587 26.1291 68.9377 24.6374 69.404 23.6042C69.9383 22.4844 69.654 22.0381 69.6979 21.0158C69.7453 19.8182 69.2013 19.3506 69.3094 18.5323C69.541 16.6466 70.6726 15.8665 71.8922 15.2974ZM8.98502 13.0488C9.01867 12.1945 10.5962 10.1606 11.1183 10.193C11.1927 10.1967 11.272 10.3052 11.2669 10.4173C11.2246 11.2137 10.9965 11.5152 10.8345 12.1276L9.96114 11.5658L9.86507 11.6489L9.85511 12.5864L10.0359 12.8917L10.0627 13.82C10.0778 14.1722 9.76006 14.8079 9.72632 15.3461L8.88036 16.8922L8.78385 16.9284L8.98502 13.0488ZM37.1597 18.3265C37.2581 16.4914 38.001 14.6292 38.6614 13.4352C39.0381 12.7399 39.4181 12.227 39.9063 11.7067C40.0249 11.5623 41.5348 10.6736 41.7003 10.6971L42.3006 10.7205C42.2257 10.9301 41.0263 12.5737 40.729 13.2475C40.2799 14.2335 40.0737 15.3461 40.0111 16.5545L39.9809 16.9609C39.8592 19.3506 40.9452 23.3602 41.8102 24.6065C42.6046 25.7949 43.1481 26.1238 44.0535 27.0646C44.5097 27.5272 46.2309 28.9359 46.4133 29.3026C46.1432 29.4471 42.5737 29.4434 41.9369 29.4344C40.8441 29.4328 41.1175 29.2629 40.408 28.5296C40.2076 28.329 40.0128 28.0292 39.8287 27.7927C39.5636 27.4098 39.3809 27.4098 39.1733 27.137C38.9218 26.765 37.4519 24.0683 37.3285 23.671C37.1127 23.0207 36.9249 19.652 36.9621 18.6335L37.1597 18.3265ZM24.2373 6.61139C24.8502 6.64387 24.9549 6.44176 25.5226 6.46516L26.2964 6.52301L27.6545 6.8681C27.9521 7.08299 28.3283 7.16047 28.6678 7.3919C29.0614 7.67176 29.1391 7.81079 29.4819 8.08002C30.1243 8.64162 30.3858 8.98113 30.9026 9.6911C31.3252 10.2546 31.8013 10.7152 32.0463 11.5623C32.1835 12.0752 32.5701 13.5382 32.5448 14.1145L32.5194 14.846C32.4485 16.15 31.2945 17.3638 30.7928 18.1403C30.3407 18.9062 28.7539 19.5656 27.5885 19.2023C25.8808 18.6823 25.7353 18.5991 24.6864 17.3638C23.6947 16.1969 23.8637 15.4347 23.6119 13.6538L24.5392 12.0698L25.2454 12.0137C26.2693 11.8766 27.3316 13.1606 27.2742 14.5118C27.2121 15.8268 26.1965 15.3624 26.1525 15.9857C26.153 16.0198 26.4432 16.6251 26.5477 16.6304C27.6545 16.6954 28.2657 15.3895 28.7843 15.0066L28.9536 14.2879C29.0501 12.9042 28.5445 11.622 27.9956 10.8253C27.379 9.92219 26.5631 9.31901 25.4719 9.26124C24.2791 9.1745 23.6086 9.54461 22.6913 10.2364C22.2878 10.5581 21.247 12.3173 21.1354 12.9872C20.9092 14.4503 20.882 15.6297 21.0071 17.1109C21.0445 17.5624 21.1845 18.5829 21.291 18.9296C21.3637 19.132 21.6896 20.4885 21.6896 20.6401C21.3788 20.3295 20.5324 17.9129 20.5814 17.1632L20.1726 15.6931L20.1135 14.053L20.462 10.8904C20.769 10.437 20.7367 9.99093 21.1168 9.33693C21.4063 8.87999 21.5357 8.44113 21.8872 8.05653C22.2592 7.68804 22.4597 7.43879 22.9261 7.16424C23.4097 6.92399 23.8621 6.8681 24.2373 6.61139ZM40.332 10.2908C41.7142 9.04267 43.8592 8.37076 46.2799 8.51347L46.8069 8.56576C47.1349 8.58384 47.2342 8.79521 47.8965 8.83679C49.1346 9.93316 50.2329 11.4846 49.6686 14.0367C49.245 15.9604 47.8965 17.6708 46.1632 17.5678L45.6466 17.5371C43.998 17.4125 43.5924 16.0198 42.6548 15.1746C42.741 13.8743 42.6548 13.3649 43.4926 12.6696C43.9594 12.2594 45.2122 12.4454 45.1583 13.7062C45.0808 14.976 43.8323 14.2335 43.7951 14.9416C43.7886 15.1493 44.1447 15.3714 44.3846 15.3895L44.5571 15.4058C45.5219 15.4635 46.4859 14.4593 46.5552 13.3649L46.6082 12.2396C46.6214 11.938 45.7882 10.6646 45.5553 10.4604C45.1448 10.0975 44.2275 9.82104 43.5517 9.78667C43.2125 9.76696 42.0348 9.79944 41.8 9.85721C41.3455 10.0034 40.7358 10.3052 40.332 10.2908ZM66.2825 10.4173C68.4716 10.5419 68.0171 8.97213 69.0137 9.04267H69.1051C69.541 9.07516 70.5864 11.0475 71.0764 11.1216L71.0444 11.4249L70.4515 11.3996C69.0798 11.3075 68.1792 11.4249 66.8211 11.3636C65.8603 11.3275 64.2416 11.938 63.4443 11.8675C62.9633 12.2142 62.2433 12.2685 61.6335 12.5178C61.0017 12.7436 60.5337 12.9872 59.8833 13.26C59.4292 13.4227 59.4577 13.4768 59.0911 13.7369C58.8416 13.9321 58.5201 13.9808 58.2432 14.1017C57.7437 14.3312 57.2329 14.7845 56.7126 15.0627C55.4292 15.7274 54.971 16.4967 53.9981 17.5281C53.5185 18.0284 51.8796 20.2337 51.6264 20.3711C51.6979 18.8284 51.2869 18.61 50.7531 17.6293C50.24 16.7479 50.0401 15.8374 50.8576 15.0915C51.1636 15.2939 53.3951 15.2361 53.8916 15.0915C54.8429 14.8079 55.4913 14.4268 56.0015 13.5273C56.2436 13.0885 56.1872 12.1636 56.2261 11.5152C56.2703 10.4732 56.0708 10.0775 56.7277 10.3792C57.4493 10.67 58.3193 11.5551 59.2314 11.6038L59.6622 11.6308C60.2822 11.6723 61.25 10.9373 61.5896 10.4948C62.005 9.97284 62.25 8.70496 62.9932 8.75373C64.7758 8.87459 64.9764 10.3232 65.9275 10.3919L66.2825 10.4173ZM72.0972 12.9386C72.1137 12.5447 72.5712 10.7965 72.7165 10.4732C72.931 9.95844 73.6068 9.24316 74.1778 9.27196L74.4263 9.29004C74.8501 9.31902 75.5461 9.62236 75.8771 9.78667C76.5483 10.1118 76.5209 10.1118 76.7742 10.8776C76.2995 10.829 76.0529 10.4173 75.4092 10.3792C74.1138 10.2852 73.4057 10.8542 73.3281 12.4076C73.291 13.3196 73.5106 13.7766 73.4937 14.3744L72.7167 14.4503L72.4398 14.4159C72.1644 14.3997 72.0275 14.0114 72.0509 13.6538L72.0972 12.9386ZM66.0749 7.81267L65.6439 7.8017C65.4274 7.7783 63.7569 6.35493 62.9477 6.27907L62.519 6.26116C60.4021 6.13816 60.8227 9.45624 59.0117 9.33161C57.7183 9.25756 55.4338 6.36959 54.0588 8.40144L54.0453 11.7881C54.0421 13.0019 52.2953 13.2096 51.221 13.1553L51.1299 13.1444C50.6685 13.1246 50.6296 11.1685 50.4337 10.4948C50.1505 9.50862 50.0789 10.1118 49.7395 9.50862C49.4894 9.08767 49.3002 8.86927 48.9777 8.57664C48.1485 7.81267 45.5874 6.84093 43.9487 6.95836L40.6481 7.33567C39.5432 8.13959 37.6935 8.48639 36.3421 9.46524C35.7863 9.84444 34.9703 10.3919 34.5379 10.9752C34.3306 11.2806 33.1612 12.7002 32.9585 12.8267C32.6849 12.0137 32.6544 11.0619 32.1949 10.3088C31.756 9.59707 31.3673 9.10764 30.8824 8.44113C30.396 7.8017 29.9281 7.32316 29.3386 6.79379C28.8978 6.36959 27.7219 6.0479 27.286 5.67959L25.7474 5.47002L24.8877 5.40316C23.9909 5.34727 22.1034 6.27907 21.6743 6.90779C21.3502 7.37724 20.9279 7.55244 20.4952 8.19556C20.3706 8.41233 19.8399 9.8879 19.8197 10.2311C19.7136 10.2908 19.5104 10.5128 19.4563 10.5128C19.2067 10.4948 19.2452 10.2852 18.8651 10.2708L17.313 10.1768C16.3059 10.1118 14.0795 12.227 14.0237 12.227C13.4782 12.2036 13.1455 10.8218 12.463 10.3954C11.8046 9.98536 10.9763 9.46893 10.0355 9.39659C9.45269 9.35501 8.71113 9.85721 8.30734 10.1534C7.75011 10.5309 7.35465 11.3275 6.98966 11.5785C7.05406 10.1768 6.2026 10.8253 5.63001 11.1685C5.52028 11.2697 4.97439 11.6001 4.88493 11.7067C4.72987 11.8385 4.34951 12.4454 4.18569 12.422C3.95456 12.4112 3.98298 12.3173 3.95087 12.0878C3.18098 12.0698 3.00145 13.195 2.61302 13.7459C2.17059 14.3871 1.90168 14.9416 1.86288 16.0886L1.66875 16.3903L1.6199 16.8922C1.35648 17.3258 0.503135 18.6263 0.477806 19.3C0.407145 20.3529 0.39667 23.27 0.675367 23.8209L0.650295 24.2326C1.07083 25.0762 1.0334 24.9297 1.59088 25.5638C2.22134 26.2737 2.40009 26.0588 2.94564 26.5337C4.94073 26.6729 5.12808 27.6536 5.82087 29.0786L5.78043 29.6277L6.03028 29.9204C6.02401 30.0974 6.45597 33.0235 6.54037 33.2727C6.67886 33.8253 6.85298 34.1829 6.96271 34.7608C7.04573 35.2902 7.53718 36.0452 7.53203 36.1879C7.53229 36.2004 6.13838 38.5088 5.95756 38.9043C5.61327 39.7171 4.95069 41.3444 4.62641 41.9966L4.0169 44.2092L3.81934 44.4837C3.76679 45.6035 3.37648 46.7558 3.30204 48.0582C3.20957 49.476 3.20931 50.4548 3.18561 51.8475C3.1523 53.7782 3.074 58.0735 3.873 58.7851C3.7819 60.2787 5.09949 63.0838 5.56905 64.144C8.24689 74.9901 28.6964 78.8807 37.1074 71.7299C37.7493 71.1664 38.0447 71.0636 38.6765 70.3284C39.1687 69.7143 39.6073 69.4542 40.1106 68.7551C40.3866 68.3559 41.2256 67.3718 41.3895 66.9635C41.5822 66.4541 42.1718 65.1085 42.5179 64.8411C42.4623 65.786 42.3861 66.2138 42.3861 67.2128C42.3863 67.7799 43.1834 68.2947 43.6296 68.32L45.6823 68.4572C46.4724 68.5024 46.6516 68.32 47.1819 68.0399C47.1673 66.9219 45.7394 64.8305 46.2799 63.6545C47.2732 64.5397 46.9962 65.9881 49.2446 66.3151C50.1754 66.4541 50.9507 66.2463 51.1466 67.2128C51.3733 68.3453 51.4388 68.4463 51.9017 69.2917C52.8883 71.1086 53.8156 70.5199 55.6266 71.1664C56.4193 71.4446 58.6824 72.774 58.6923 73.6915L58.1016 73.6717L58.0844 73.8722L58.5122 73.892C58.7025 73.9047 58.6923 73.9769 58.8581 74.1087L60.7111 74.7662C61.458 74.591 63.6369 74.6253 64.5136 74.685C65.7517 74.7771 66.2924 74.0834 67.9832 74.199L68.264 74.078L77.7541 73.6789C78.2021 73.3663 79.031 72.2881 79.0631 71.4987C79.1126 70.836 78.9483 70.7222 78.9854 70.061C78.7472 69.5844 78.7691 69.2411 78.3857 68.8366C78.2439 68.7011 77.5883 68.0039 77.4363 67.973L76.1477 68.0292C75.9062 68.1898 75.7725 68.3072 75.3619 68.2729C74.8355 68.2548 74.801 64.6768 75.0967 63.9815C75.2169 63.6401 76.3063 60.1053 76.3163 59.903L76.4092 57.8549L76.5076 57.9162L77.1613 56.6664L77.2457 54.9236C77.5934 54.3979 77.9886 53.9806 78.0361 53.0305C78.1056 51.8891 77.7506 51.1088 77.394 50.4134L78.7409 49.0262L78.6375 48.9306L78.7358 48.0254C78.6375 47.8286 78.5731 47.8286 78.5833 47.5994L78.5954 47.3048C78.6056 47.1062 79.1661 46.4181 79.1847 45.9052L79.2186 45.1682C79.241 44.798 78.9854 44.9154 78.9971 44.5506C79.0061 44.173 79.2642 44.3338 79.2793 43.9527L79.2828 43.8369C79.303 43.6095 79.0038 42.8474 78.8502 42.654C78.6005 42.3236 77.987 42.0399 77.9533 41.9641C77.8473 41.7382 78.0226 40.6707 77.9819 40.313C77.9177 39.8129 77.8131 39.3054 77.7539 38.8247L77.9501 38.6858L78.8011 38.3643L79.2238 38.3949C79.6192 38.1132 80.308 37.8892 80.6188 37.6382C80.9314 37.3926 81.472 36.578 81.4922 36.074C81.6596 32.906 79.6424 31.9181 79.651 31.7229C79.6647 31.5189 80.3587 30.7963 80.5158 30.5688C80.766 30.2058 80.8706 29.4165 81.2523 29.2557L81.3574 27.3086C81.3706 26.9456 81.1849 27.2383 81.2185 26.483C80.6497 25.9702 80.4989 25.1231 79.9093 24.5849C79.5906 24.305 78.4448 23.2574 78.4701 22.8076C78.4787 22.6758 79.6796 21.1892 79.7893 19.3L79.8287 18.3643C79.9453 16.3215 78.4245 14.1505 77.0495 13.6556C77.1018 12.9386 77.3756 12.4816 77.4244 11.5333L77.45 11.0276C77.5377 9.48153 75.9059 8.65602 74.5611 8.57664L74.3857 8.57476C73.4432 8.49359 73.024 8.71027 72.6119 9.3713C71.9112 8.72656 70.0238 5.92696 69.4361 5.88727C68.5966 5.81493 68.1792 6.45076 67.6675 6.66196C66.8769 6.99436 66.8532 7.87764 66.0749 7.81267ZM73.2066 19.5998L73.1931 19.896C73.1761 20.1958 73.6068 20.9561 73.916 20.9743L74.4263 20.9977C75.1693 21.0573 76.0663 19.3072 75.5916 18.8284L75.4466 19.5402C75.2506 19.3578 75.1118 18.9874 74.8956 18.973L74.5462 18.9568C74.5093 18.722 74.5393 18.6551 74.3077 18.6444L74.2047 18.6335C73.7624 18.5991 73.2386 19.0218 73.2066 19.5998ZM70.3602 29.6999C70.4225 30.1462 70.4597 30.8271 70.9091 30.8596L71.512 30.9209C72.1897 30.9462 72.3178 29.0967 71.2722 29.039C70.7931 29.0027 70.5697 29.3838 70.3602 29.6999Z" fill="#FFCC00"/>
</svg>
